/* XPM */
static char *_507954339370[] = {
/* columns rows colors chars-per-pixel */
"137 37 216 2 ",
"   c #000000",
".  c #000018",
"X  c #000021",
"o  c #000E26",
"O  c #001C32",
"+  c #001D2F",
"@  c #0F2833",
"#  c #21292E",
"$  c #26353E",
"%  c #202C32",
"&  c #002D46",
"*  c #00274B",
"=  c #013A4D",
"-  c #013448",
";  c #003D51",
":  c #003C5E",
">  c #1C3945",
",  c #2B3C45",
"<  c #323E44",
"1  c #0B4153",
"2  c #00435C",
"3  c #044356",
"4  c #154354",
"5  c #1B4758",
"6  c #2F434C",
"7  c #30434C",
"8  c #2F4955",
"9  c #234C5C",
"0  c #284958",
"q  c #324651",
"w  c #324A56",
"e  c #3C4B53",
"r  c #354D59",
"t  c #384E5A",
"y  c #3C525D",
"u  c #35515F",
"i  c #034963",
"p  c #164F63",
"a  c #00526C",
"s  c #185266",
"d  c #015874",
"f  c #145B72",
"g  c #2C5363",
"h  c #285669",
"j  c #345463",
"k  c #3B5562",
"l  c #3D5966",
"z  c #3E5B69",
"x  c #335A6C",
"c  c #255E74",
"v  c #335E71",
"b  c #274F60",
"n  c #0F637D",
"m  c #2A6279",
"M  c #396478",
"N  c #435158",
"B  c #475156",
"V  c #545657",
"C  c #454A4D",
"Z  c #415D6B",
"A  c #415863",
"S  c #45616E",
"D  c #5A656A",
"F  c #446373",
"G  c #4A6B7B",
"H  c #496877",
"J  c #546C79",
"K  c #58707D",
"L  c #6A7479",
"P  c #737A7E",
"I  c #71777B",
"U  c #006581",
"Y  c #286E87",
"T  c #386C82",
"R  c #3B748B",
"E  c #37758F",
"W  c #3A7892",
"Q  c #2A738E",
"!  c #486E81",
"~  c #4E7283",
"^  c #46758B",
"/  c #537485",
"(  c #54798C",
")  c #597B8C",
"_  c #567686",
"`  c #4B7C92",
"'  c #457C95",
"]  c #547E92",
"[  c #5A7F92",
"{  c #697D88",
"}  c #737C81",
"|  c #4D849D",
" . c #4F8097",
".. c #568196",
"X. c #5A8195",
"o. c #5B869B",
"O. c #5F889D",
"+. c #538299",
"@. c #6B808C",
"#. c #78848B",
"$. c #638A9D",
"%. c #678797",
"&. c #738D9B",
"*. c #768A95",
"=. c #7D919D",
"-. c #5689A1",
";. c #5C8CA3",
":. c #5287A0",
">. c #5493AF",
",. c #5D91AA",
"<. c #5794B0",
"1. c #5B95B1",
"2. c #638EA4",
"3. c #6590A6",
"4. c #6595AD",
"5. c #6997AE",
"6. c #6998AF",
"7. c #6A92A6",
"8. c #7D9CAC",
"9. c #7796A6",
"0. c #649AB4",
"q. c #6D9EB6",
"w. c #6F9FB8",
"e. c #6097B2",
"r. c #739DB3",
"t. c #7A9EB1",
"y. c #6FA1B9",
"u. c #71A4BE",
"i. c #7CA3B7",
"p. c #74A6C0",
"a. c #76A9C2",
"s. c #78ACC6",
"d. c #77ADC8",
"f. c #78ADC8",
"g. c #7CB3CF",
"h. c #7EB6D2",
"j. c #7FB8D4",
"k. c #838A8E",
"l. c #898E8F",
"z. c #8A8E91",
"x. c #848E94",
"c. c #8E9194",
"v. c #83939D",
"b. c #88939A",
"n. c #929496",
"m. c #929698",
"M. c #9E9E9E",
"N. c #97999A",
"B. c #A0A09F",
"V. c #899BA5",
"C. c #929EA5",
"Z. c #8DA2AE",
"A. c #94A2AA",
"S. c #9AA5AC",
"D. c #9CA8AF",
"F. c #87A8BA",
"G. c #9CABB5",
"H. c #94ADBB",
"J. c #9AB1BE",
"K. c #A5A5A6",
"L. c #A6A7A8",
"P. c #A5A8A9",
"I. c #AEAEAE",
"U. c #B1B0AF",
"Y. c #A2ADB3",
"T. c #A5B4BC",
"R. c #AAB5BC",
"E. c #ABB6BB",
"W. c #B2B3B4",
"Q. c #BBBBBB",
"!. c #B2B9BD",
"~. c #C0BFBF",
"^. c #BFC0BF",
"/. c #9BB5C4",
"(. c #9AB5C4",
"). c #80B9D5",
"_. c #91AFC0",
"`. c #A2B9C7",
"'. c #ACBBC4",
"]. c #A3BBC9",
"[. c #A9BBC6",
"{. c #B4BDC3",
"}. c #BFBFC0",
"|. c #B3C2CC",
" X c #BCC5CB",
".X c #B9C2C7",
"XX c #BBC9D1",
"oX c #C3C3C3",
"OX c #C5CBCE",
"+X c #CBCCCC",
"@X c #C1C7CB",
"#X c #C9CED1",
"$X c #C4CED4",
"%X c #CCD1D4",
"&X c #CCD5DA",
"*X c #C6D2DA",
"=X c #D3D3D4",
"-X c #D2D6D9",
";X c #D4D9DC",
":X c #DCDCDC",
">X c #D8D8D7",
",X c #D0D0CF",
"<X c #D4DDE1",
"1X c #D8DEE2",
"2X c #DDE1E4",
"3X c #DEE5E9",
"4X c #E3E3E3",
"5X c #E6EAEC",
"6X c #EBECED",
"7X c #E2E7E9",
"8X c #ECEFF1",
"9X c #EEF1F2",
"0X c #F1F1F1",
"qX c #FDFEFE",
"wX c #F5F7F9",
"eX c None",
/* pixels */
"eXeXeXeXeXeXeXeX4X6X0X0X0X0X0X0X6X0X0X0X0X0X0X0X0X0X0X0X6X0X0X0X6X0X0X0X0X0X6X0X0X0X0X0X6X0X0X0X0X0X6X0X6X0X0X0X6X0X0X0X0X0X0X0X6X0X0X0X6X0X0X0X0X0X0X0X0X0X0X0X6X0X0X0X0X0X6X0X0X0X0X0X0X6X0X0X0X0X0X0X0X0X0X0X6X0X0X0X0X0X6X0X0X0X0X0X6X0X0X0X0X0X0X0X0X0X0X6X4XeXeXeXeXeXeXeXeX",
"eXeXeXeXeX4X0XwXqXqXqXqXqXqXqXqXqXqXqXqXqXqXqXqXqXqXqXqXqXqXqXqXqXqXqXqXqXqXqXqXqXqXqXqXqXqXqXqXqXqXqXqXqXqXqXqXqXqXqXqXqXqXqXqXqXqXqXqXqXqXqXqXqXqXqXqXqXqXqXqXqXqXqXqXqXqXqXqXqXqXqXqXqXqXqXqXqXqXqXqXqXqXqXqXqXqXqXqXqXqXqXqXqXqXqXqXqXqXqXqXqXqXqXqXqXqXqXqXqXwXwX:XeXeXeXeXeX",
"eXeXeXeX6XqXqXqXqXqXqXwXqXwXqXqXwXqXqXwXqXwXwXqXqXqXwXqXqXqXqXwXqXwXqXqXqXqXwXqXqXwXqXwXwXqXqXqXqXwXqXqXqXqXqXwXqXqXwXqXqXqXwXqXwXqXqXwXqXwXqXqXqXwXqXqXwXqXqXwXqXwXqXqXqXqXwXqXwXqXqXwXqXqXwXqXqXwXqXqXqXqXqXwXwXqXwXqXqXqXqXqXqXqXqXwXqXwXqXqXqXqXwXqXwXqXqXqXqXqXqXqX6XeXeXeXeX",
"eXeXeX6XqXqXwX4XoXL.M.M.M.M.M.M.B.M.B.B.M.B.B.M.M.M.M.M.M.M.M.B.M.B.B.C.M.M.B.B.B.B.B.B.B.M.B.C.M.B.B.M.M.M.M.B.M.B.M.M.M.M.M.M.M.B.M.B.M.M.B.C.M.M.B.M.B.M.B.B.M.M.B.C.M.M.B.B.B.M.B.B.M.M.M.M.M.M.M.M.M.M.M.M.M.K.M.M.M.M.M.M.M.B.M.M.B.M.M.C.M.M.B.M.B.B.M.K.~.4XwXqXqX0XeXeXeX",
"eXeX6XqXwX0XW.V                                                                                                                                                                                                                                                   V Q.0XwXqX6XeXeX",
"eX>XqXwX0XK.  C n.P.L.L.L.L.L.L.L.L.L.P.L.L.P.P.L.L.L.L.L.L.L.L.L.L.L.L.L.L.L.L.L.L.L.L.L.L.L.P.L.L.L.L.L.L.L.L.L.P.L.L.L.L.L.P.L.L.L.L.P.L.L.L.L.L.L.L.L.L.L.L.L.P.L.L.L.P.P.P.L.K.L.P.L.L.L.P.L.L.L.L.L.L.L.L.P.P.L.L.L.K.P.P.L.L.L.P.L.L.P.P.L.L.P.L.L.L.L.L.n.C   K.0XwXqX:XeX",
"eX6XqX0XQ.  V K.W.W.W.W.W.W.W.W.W.W.W.W.W.W.W.W.W.W.W.W.W.W.W.W.W.W.W.W.W.W.W.W.W.W.W.W.W.W.W.W.W.W.W.W.W.W.W.W.W.W.W.W.W.W.W.W.W.W.W.W.W.W.W.W.W.W.W.W.W.W.W.W.W.W.W.W.W.W.W.W.W.W.W.W.W.W.W.W.W.W.W.W.W.W.W.W.W.W.W.W.W.W.W.W.W.W.W.W.W.W.W.W.W.W.W.W.W.W.W.W.U.K.V   U.0XqX5XeX",
"eX6X0X:XV   P n.z.z.z.z.z.z.z.z.z.z.z.z.z.z.z.z.z.z.z.z.z.z.z.z.z.z.z.z.z.z.z.l.z.l.z.z.z.z.z.z.z.z.z.z.z.z.z.z.z.z.z.z.z.z.z.l.z.z.c.l.z.z.z.z.z.z.z.z.z.z.z.l.z.z.z.l.z.z.l.l.z.z.z.z.z.z.z.z.z.z.z.z.z.z.z.z.z.z.z.z.z.z.z.z.z.z.z.z.z.z.z.z.z.z.z.z.z.z.l.l.l.n.k.  V >XqX6XeX",
"=X0X0X~.  # L I I P P P } P P P P P P I P P } } } P P P P } P P P P P P P P P P P P P I P P P P } } P P P P P P P P P P P P P P P P P P P P P I } P P P P P P P P P P P I P P P P P P P P P P P } P } P I P P P P P P P I P P P P P P P P P P P } P P P P P P P L I L #   Q.0X0X=X",
":X0X6XK.  @ V D D D D D D D D D D D D D D D D D D D D D D D D D D D D D D D D D D D D D D D D D D D D D D D D D D D D D D D D D D D D D D D D D D D D D D D D D D D D D D D D D D D D D D D D D D D D D D D D D D D D D D D D D D D D D D D D D D D D D D D D D D D V #   L.6XwX:X",
"4X0X6XN.  # 7 e N N N N N N N N N N N N N N N N N N N N N N N N N N N N N N N N N N N N N N N N N N N N N N N N N N N N N N N N N N N N N N N N N N N N N N N N N N N N N N N N B N N N N N N N N N N N N N N N N N N N N N N N N N N N N N N N N N N N N N N N N N < %   M.7X0X4X",
":X0X4XN.  % $ , , 6 < 6 , 6 6 6 < e N e e e e N e 7 7 7 7 7 7 7 6 6 7 6 6 6 7 7 6 6 6 6 6 6 6 6 7 7 6 7 6 7 6 7 6 6 6 7 6 7 7 7 6 6 7 7 7 7 6 6 6 6 6 6 7 6 7 7 7 7 7 6 6 6 7 7 7 7 7 7 7 7 6 6 7 7 7 6 7 7 7 7 6 6 6 7 7 6 6 6 6 7 6 7 6 6 6 6 7 7 7 7 6 7 7 , , , , $   M.4X6X:X",
":X6X4XN.  $ 7 6 6 6 6 6 6 q q q 6 O . X X . X X O > e 7 6 q q q q q q q q q q q 6 6 q q 7 q q q 6 6 q 6 q q q q 7 6 6 6 q 6 7 q 7 6 6 8 q 6 q 8 q q q 6 6 7 q q q q q q q q q q q q q q 6 q q q 7 6 6 q 6 q q q 7 7 q 0 6 6 6 q 7 q 7 q q q q q 6 0 6 6 6 6 6 6 6 , , ,   M.4X6X:X",
">X6X4XN.. , q q w t r r r r t 8 l #.x.x.#.k.k.#.I u & w t w 8 w w w w w w 8 8 t t y u w 0 w y N t t w t k r 8 w y y r r r w w w w r r r w t r 8 8 w w r r w w w w r 8 8 r w w w w w 8 8 r w 8 w 8 t t t u y r 8 t y y r t r 8 w w w r t w 8 8 8 w r t t t t r r w w w <   M.:X6X>X",
">X4X4XN.o 7 t t j k k k j k A w k +XwXwXwXqXqXwX8X;Xb.5 l l 9 ; ; = = = = 5 A k l 4 & = 1 = & & w k l u & = 4 ; & = A l k k 4 4 k k y k y y k y 9 1 u y y l 5 1 u k k 0 = = 3 1 3 = 1 k l k 9 1 k l u A 8 & = 4 ; & 5 N y k j 5 ; 4 j l A r 1 u A u k k k k j k k t t 7 . M.:X5X>X",
"=X4X:XN.+ q y l l A z z z z Z j 9 #XqXqX6X6X6X9XqXqX4XK 3 #.@X+X%X=X=X=X;X$X#.9 9 { !.>X2X=X.XD.{ j g l V.oX-X%XE.{ 9 z j =.$XOXb.9 S z Z S g @..X%XA.j b { oX%XS.2 #.OX%X%X$X+X+X,X%XS.2 #.oXOXC.j Z 9 H S.@X>X#XY.K 9 z j C.OX#X X#.= K E.%XS.l l Z l z z z l l A u t o n.:X4X>X",
"=X4X>Xn.O t A Z Z F S F F F H v h OXqX9X@.i i M ;XqXwXv.; *.wXqXwX5X6X5X8X3Xb.2 v.7XqX8X5X6XqX8X@.2 K OXqXqXqXqXqX6XA.h p A.qXqXD.2 H F F H s #.9XqX!.p h #.wXqX!.* V.wXqXqXqXqXqXqXqX.X* =.wXqXR.p x { ;XqXqXqXqXqX2Xv.h s E.qXqXqX$Xp x :XqX.Xp F F F F F F F S Z z u O N.>X4X=X",
",X:X>Xn.- k F F H G G G H H ~ F M #XqXwXY.v.b.D.4XqXwX=.i *.0XqX.XM { { *.&._ v %XqX5X*.G ) S.Y.F M .XqXqX@XA.G.3XqX6X=.2 V.qXqXA.a K G G J m @.8XqXR.c v %.9XqXY.i @.G.C.R.wXqXOXV.G.v.s *.wXqXY.2 / *XqXwX{.V.R.6XqX2X{ 2 R.qXqXqXqX{.m %XqX{.s G G G G G G G G F Z l @ N.>X1X,X",
",X:X=Xn.= Z H G ~ ~ ~ ~ / ~ _ G M %XqXqXqXqXqXqXqXqX X~ m =.9XqX7X$X&X&XV.f M ! $XqXwX2X#X{.Z.( d %.5XqX Xf m a *.8XqX.Xi A.qXqXD.c ( ~ / _ m *.9XqX'.M M &.8XqXR.m ~ M i @.8XqXY.: m ~ M =.9XqXR.i V.wXqXR.a M a C.wXqXG.i R.qX3X&XqXqX{.&XqX.Xm ~ ~ ~ ~ ~ ~ G ~ G F Z = n.=X:X+X",
",X>X=Xc.4 F ~ / ( ( ( ( ( ( ) ^ ^ &XqXqX1X3XqXqXwXG.( ( ! 9.0XqX0X5X8X8XT.! [ ^ %. X6XqXqXqXqX2X&.%.9XqX'.d @.T ^ 3XqX$Xd Z.qXqXG.m ( ( ( ) T &.6XqX[.T ! 9.9XqX'.m ( X.! 9.0XqX'.T ) ) T 9.wXqX'.d A.wXqXZ.d %.Y %.8XqX[.a '.qX<X&.-XqXwXwXqX XT ( ( ( ( ( ( ( ( / G F = n.,X:X+X",
"+X>X,Xn.9 H ~ ( ( [ [ ....[ o.] ` &XqXwX9.R #XqXwXZ.Y %.^ 9.wXqX|.Y +.$.` R ....&.$.+.9.V.|.qXqX'.R 3XqX3X9.R ' T.qXqX[.n H.qXwXH.U ` ' ' $.^ 7.8XqXXXR Y Z.wXqXT.Y o.%.W 8.9XqX[.R ..%.R 8.wXqX'.U 9.8XqX&X$.R ] |.qXwXH.d '.qX7X` $.1XqXqXqXXX^ ..X...X.X.X.[ ) ( ~ G 4 n.,X>X+X",
"oX=X,Xz.b G ] ..o.o.O.O.$.O.$.o.+.&XqXwX8.Q 7.3XqX8X8... .8.wXqX;X[.'.'.|.XX8. .&XwX$X'.J.XXqXqXT.Q T.wXqX9X-X2XqXqX<X7.E J.qXqX3X&X;X;X;XXX..+.$XqXwX<X&X9XqX8X8.+.$.$.' V.wXqX|.W $.2.' V.wXqX[.E -.{.qXqX5X&X3XqXqX*X$.E |.qX7X7.E 8.2XqXqXXX' $.$.O.O.O.O.o.o.X.( ~ 9 n.+X=XoX",
"oX=X+Xz.g / ..O.2.2.2.2.2.2.7.;.3.<XqXwX(.;.| `.qXqX;X6.| H.wXqXqXqXqXqXqXwXH.;.XX0XwXqXqXqX8X|.2.;.;.(.3XwXqXqX9X*X8.-.:.`.qXqXqXqXqXqXqX2X;.o.r.*XwXqXqXqX3XH.-.2.3.3.:.H.wXqXXX:.3.2.:.(.wXqXXX-.2.2.[.8XqXqXqX8XXX5.;.-.|.qX5Xi.;.| (.wXqXXX-.;.3.3.3.3.2.2.2.$.X.( b c.+X=XoX",
"oX,XoXz.x ( $.2.4.4.6.6.5.4.q.4.q.H.]./.i.4.5.i.(.].`.y.4.i././.].].].].].].i.5.q.y._.].|.(.i.,.4.q.4.,.q._.]./.i.3.,.q.4.F.]./.`.].`./.].(.0.6.4.,.F././._.r.,.5.5.6.6.e.i././.F.4.5.q.4.i./.`.F.5.5.0.,.r._.].(.t.,.4.6.0.F.].(.r.4.4.q.H.].H.q.4.6.4.5.6.6.4.4.2.o.) g b.oX,XoX",
"~.,XoXz.v [ 2.4.q.q.q.y.q.y.q.w.w.0.1.1.q.u.y.q.1.<.1.y.y.q.1.>.<.<.<.<.>.<.q.q.0.0.1.<.>.<.1.q.q.q.y.q.0.1.>.1.e.q.w.w.w.0.1.1.1.>.1.<.<.0.w.w.w.q.1.1.1.1.0.w.w.u.q.q.q.q.1.<.0.w.q.y.w.q.1.1.0.w.q.w.w.0.1.,.1.e.w.w.w.r.0.<.1.w.r.w.u.1.<.0.q.q.w.q.u.r.w.q.q.4.2.X.x c.oX,X~.",
"~.+XoXk.F o.4.q.y.u.u.u.u.u.p.p.u.p.p.p.u.p.u.u.p.a.p.u.u.a.u.a.p.p.p.p.p.p.u.p.a.a.p.p.p.a.p.p.p.p.u.p.a.a.a.a.p.p.p.p.p.p.p.p.p.a.p.p.p.p.u.p.u.a.a.p.a.p.p.p.p.u.p.u.p.p.p.a.p.p.p.p.p.u.p.p.p.p.p.u.p.a.a.p.a.p.p.p.p.p.p.p.p.p.p.u.u.p.p.p.u.u.p.u.u.u.p.u.u.q.3.o.M z.~.+X~.",
"Q.oX~.l.F o.5.w.p.s.s.d.f.s.f.f.f.f.f.f.s.s.s.f.f.f.f.f.s.s.g.s.f.f.f.s.f.f.f.f.f.f.s.f.f.f.s.s.f.d.f.f.s.s.s.s.d.s.f.s.f.s.f.f.d.s.f.f.s.f.f.s.f.f.f.f.d.s.d.f.s.f.f.f.f.f.f.f.f.s.d.s.s.f.f.f.f.s.d.d.d.d.f.f.f.f.s.d.f.f.d.s.f.f.f.f.s.f.f.f.f.s.f.s.f.f.d.s.a.y.4.O.M l.Q.+XQ.",
"I.oX~.n.F o.q.u.d.f.g.g.h.g.g.g.g.h.g.g.g.g.g.g.g.g.g.g.g.g.g.g.h.f.h.h.h.g.g.g.g.g.g.g.g.h.g.h.g.g.g.g.h.g.g.h.g.g.g.h.h.g.g.g.g.g.g.h.g.h.g.h.g.g.g.g.g.g.g.h.h.g.g.g.g.g.g.g.g.g.g.h.h.g.g.h.h.h.g.g.g.g.g.h.f.h.g.h.h.g.g.h.g.h.g.g.g.g.g.h.h.g.g.h.g.g.g.f.d.u.6.o.F c..XoXU.",
"K.~.~.M.H +.5.u.d.g.h.h.j.j.j.j.j.j.j.j.).).j.j.j.j.j.j.).).).j.h.h.).j.h.).).h.).).h.).h.h.).).j.j.j.j.h.j.j.j.h.j.j.j.j.j.h.h.h.h.h.h.).).h.h.h.j.h.h.).j.).h.).h.).).h.).j.j.h.h.j.j.j.j.h.j.).h.).h.h.h.h.).h.).h.).).h.).).h.).h.).j.j.j.j.j.j.j.j.h.j.h.g.f.u.6.+.H M.~.~.K.",
"eXW.~.I.L ! 2.u.a.g.h.h.j.).).).j.j.j.j.).).).).).).).).).).).).).).).).).).).).).).).).).).).).).).).h.).).).).).j.).).).).).h.).).).).).).).).).).).).).).).h.).).).).j.).).).).j.).h.).).).h.).).).h.).).).).).h.).).).).).).).).).).j.h.).).).).j.h.j.h.h.g.a.y.7.! L U.oXW.eX",
"eXU.~.Q.M.J ] 4.u.a.f.g.g.g.g.g.g.g.h.g.g.g.g.g.g.g.g.g.g.g.g.g.g.g.g.g.h.g.g.g.g.g.g.g.g.g.g.g.h.g.g.g.g.g.g.h.g.g.g.h.h.g.h.g.h.h.g.g.g.h.g.g.h.g.g.g.h.g.g.g.g.g.g.g.g.g.g.g.h.h.g.g.h.g.g.g.h.g.g.g.g.g.h.h.g.g.g.h.h.g.h.f.g.g.h.g.g.g.g.h.h.g.g.g.g.g.d.p.y.5.( J M.W.oXI.eX",
"eXeXW.Q.U.n.J ^ ;.4.q.y.y.u.u.u.u.u.u.u.u.u.u.u.u.u.u.u.u.u.u.u.u.u.u.u.u.u.u.u.u.u.u.u.u.u.u.u.u.u.u.u.u.u.u.u.u.u.u.u.u.u.u.u.u.u.u.u.u.u.u.u.u.u.u.u.u.u.u.u.u.u.u.u.u.u.u.u.u.u.u.u.u.u.u.u.u.u.u.u.u.u.u.u.u.u.u.u.u.u.u.u.u.u.u.u.u.u.u.u.u.u.u.u.y.y.q.4.O.( J n.W.~.W.eXeX",
"eXeXK.Q.W.W.B.P L ( [ ..o.o.o.o.o.o.o.o.o.o.o.o.o.o.o.o.o.o.o.o.o.o.o.O.O.o.o.o.o.o.o.o.o.o.o.o.o.o.o.o.o.o.o.o.O.o.o.o.O.o.o.o.o.o.o.O.o.O.o.o.o.o.o.o.o.O.o.o.o.o.o.o.o.o.o.o.o.o.o.o.o.o.o.O.o.o.o.o.O.o.o.o.o.o.o.o.o.o.o.o.o.o.o.o.o.o.o.o.o.o.o.o.o.o.[ ( K P B.W.W.Q.K.eXeX",
"eXeXeXK.U.W.U.I.M.N.n.n.n.n.m.m.m.n.m.m.m.m.m.m.m.m.m.m.m.n.m.m.m.m.m.m.m.n.m.m.m.m.m.m.m.m.m.m.m.m.m.m.m.m.m.m.m.m.m.m.m.m.n.m.m.m.m.n.n.n.m.n.m.m.m.m.m.m.m.m.m.m.n.n.m.m.m.m.m.m.m.n.m.m.n.m.m.m.m.m.n.m.m.m.m.m.m.m.m.m.m.n.m.m.m.m.m.m.n.m.m.m.m.m.n.c.n.n.B.I.U.W.W.K.eXeXeX",
"eXeXeXeXM.I.W.W.W.W.U.U.U.W.U.U.U.U.U.W.W.U.U.U.U.U.U.U.U.U.U.W.U.U.I.W.U.U.W.U.U.U.U.U.U.U.U.U.U.U.U.W.U.U.U.U.W.U.I.U.U.U.U.W.I.U.U.U.W.I.W.U.I.W.U.U.U.U.U.U.W.U.W.U.U.U.U.U.W.U.W.U.U.U.U.U.U.U.U.U.U.U.U.U.U.U.U.W.W.U.U.U.U.U.I.U.U.U.U.W.U.W.U.U.U.U.U.W.W.W.W.L.M.eXeXeXeX",
"eXeXeXeXeXeXB.L.K.I.I.I.I.I.I.I.I.I.I.I.I.I.I.I.I.I.I.I.I.I.I.I.I.I.I.I.I.I.I.I.I.I.I.I.I.I.I.I.I.I.I.I.I.I.I.I.I.I.I.I.I.I.I.I.I.I.I.I.I.I.I.I.I.I.I.I.I.I.I.I.I.I.I.I.I.I.I.I.I.I.I.I.I.I.I.I.I.I.I.I.I.I.I.I.I.I.I.I.I.I.I.I.I.I.I.I.I.I.I.I.I.I.I.I.I.I.I.I.L.K.K.eXeXeXeXeXeX",
"eXeXeXeXeXeXeXeXeXeXeXeXeXeXeXeXeXeXeXeXeXeXeXeXeXeXeXeXeXeXeXeXeXeXeXeXeXeXeXeXeXeXeXeXeXeXeXeXeXeXeXeXeXeXeXeXeXeXeXeXeXeXeXeXeXeXeXeXeXeXeXeXeXeXeXeXeXeXeXeXeXeXeXeXeXeXeXeXeXeXeXeXeXeXeXeXeXeXeXeXeXeXeXeXeXeXeXeXeXeXeXeXeXeXeXeXeXeXeXeXeXeXeXeXeXeXeXeXeXeXeXeXeXeXeXeXeX"
};
