/* XPM */
static char *_507954326744[] = {
/* columns rows colors chars-per-pixel */
"137 37 209 2 ",
"   c #000000",
".  c #000016",
"X  c #001C36",
"o  c #001F39",
"O  c #00122B",
"+  c #00233B",
"@  c #00293C",
"#  c #19282E",
"$  c #21292E",
"%  c #26353E",
"&  c #202C32",
"*  c #000043",
"=  c #002E47",
"-  c #033648",
";  c #183D4C",
":  c #003D54",
">  c #003758",
",  c #2A3B45",
"<  c #2B3F48",
"1  c #243D48",
"2  c #323E44",
"3  c #1F404E",
"4  c #00435C",
"5  c #064358",
"6  c #184657",
"7  c #2F424C",
"8  c #22404E",
"9  c #30424B",
"0  c #224B5C",
"q  c #2A4755",
"w  c #324650",
"e  c #344A54",
"r  c #3A4C55",
"t  c #364D59",
"y  c #394F5A",
"u  c #35515E",
"i  c #3A515D",
"p  c #004B64",
"a  c #03526A",
"s  c #1A566C",
"d  c #005A75",
"f  c #174F63",
"g  c #285466",
"h  c #3A5462",
"j  c #395867",
"k  c #265E74",
"l  c #2D5668",
"z  c #04617D",
"x  c #17617A",
"c  c #29647B",
"v  c #3C6275",
"b  c #376478",
"n  c #435158",
"m  c #475156",
"M  c #545657",
"N  c #454A4D",
"B  c #425965",
"V  c #425D6B",
"C  c #4A5F6A",
"Z  c #44606E",
"A  c #49616D",
"S  c #5A656A",
"D  c #446473",
"F  c #4D6976",
"G  c #456A7B",
"H  c #4B6B7B",
"J  c #486675",
"K  c #576C77",
"L  c #59717D",
"P  c #63727B",
"I  c #6C7377",
"U  c #737A7E",
"Y  c #71777B",
"T  c #005E81",
"R  c #0C6782",
"E  c #386C82",
"W  c #28728D",
"Q  c #38728A",
"!  c #3B7994",
"~  c #206B85",
"^  c #486F81",
"/  c #4D7284",
"(  c #48758B",
")  c #547384",
"_  c #557A8C",
"`  c #59798A",
"'  c #597685",
"]  c #4C7D93",
"[  c #447C94",
"{  c #567E92",
"}  c #597E92",
"|  c #647B86",
" . c #737C82",
".. c #49839D",
"X. c #5A8295",
"o. c #54859C",
"O. c #5B869B",
"+. c #5F889D",
"@. c #558195",
"#. c #74838B",
"$. c #7B868E",
"%. c #7D8589",
"&. c #6D8C9C",
"*. c #64879A",
"=. c #7F8A91",
"-. c #768C98",
";. c #7E929C",
":. c #6B818D",
">. c #5C8CA3",
",. c #578CA5",
"<. c #5D91AA",
"1. c #628EA4",
"2. c #6590A6",
"3. c #6595AD",
"4. c #6997AE",
"5. c #6B98AF",
"6. c #6E92A4",
"7. c #7696A7",
"8. c #649AB4",
"9. c #6C9DB5",
"0. c #6F9FB8",
"q. c #789FB4",
"w. c #6FA1B9",
"e. c #71A4BE",
"r. c #7DA0B2",
"t. c #74A6C0",
"y. c #77ABC5",
"u. c #78AAC2",
"i. c #77ADC8",
"p. c #78ADC8",
"a. c #7CB3CF",
"s. c #7EB6D2",
"d. c #7FB8D4",
"f. c #878C8F",
"g. c #818C93",
"h. c #8A8E91",
"j. c #8E9194",
"k. c #8A969D",
"l. c #84959E",
"z. c #929496",
"x. c #929698",
"c. c #9E9E9E",
"v. c #97999A",
"b. c #A0A09F",
"n. c #8B9BA4",
"m. c #869BA7",
"M. c #929DA4",
"N. c #8BA1AD",
"B. c #94A3AC",
"V. c #9BA5AB",
"C. c #9AA2A7",
"Z. c #8DA5B2",
"A. c #88A5B5",
"S. c #9BABB5",
"D. c #94AEBC",
"F. c #9AAEBA",
"G. c #93A8B5",
"H. c #9CB1BC",
"J. c #96B0BE",
"K. c #A5A5A6",
"L. c #A6A7A8",
"P. c #A5A8A9",
"I. c #AEAEAE",
"U. c #B1B0AF",
"Y. c #A3ADB3",
"T. c #A3B3BC",
"R. c #ABB4B9",
"E. c #B2B3B4",
"W. c #BBBBBB",
"Q. c #B2BABF",
"!. c #C0BFBF",
"~. c #BFC0BF",
"^. c #80B9D5",
"/. c #9DB5C2",
"(. c #A5B8C3",
"). c #B4BEC4",
"_. c #BFBFC0",
"`. c #BBC5CA",
"'. c #B7C2C9",
"]. c #BACAD3",
"[. c #AFC2CC",
"{. c #C3C3C3",
"}. c #CBCCCC",
"|. c #C2C7CA",
" X c #CACFD1",
".X c #C3CDD4",
"XX c #CDD2D5",
"oX c #CBD5DA",
"OX c #C9D4DA",
"+X c #D3D3D3",
"@X c #D4D9DC",
"#X c #DBDCDC",
"$X c #D2D7DA",
"%X c #D0D0CF",
"&X c #D5DDE2",
"*X c #DADEE1",
"=X c #DCE1E5",
"-X c #DEE4E9",
";X c #E3E3E3",
":X c #E1E6EA",
">X c #E5E9EC",
",X c #EBECED",
"<X c #ECEFF1",
"1X c #EEF1F2",
"2X c #F1F1F2",
"3X c #F6F7F8",
"4X c #F7F8F9",
"5X c #FDFDFD",
"6X c None",
/* pixels */
"6X6X6X6X6X6X6X6X;X,X2X2X2X2X2X2X2X2X2X2X2X2X2X2X2X,X2X2X2X2X,X2X2X2X2X2X2X2X2X2X2X2X2X2X2X2X2X2X2X,X2X2X2X2X2X,X2X2X2X2X2X2X2X2X2X2X2X2X2X2X2X2X2X2X2X2X2X2X2X2X2X2X2X2X2X,X2X2X2X2X2X2X2X2X2X2X2X2X2X2X2X2X2X2X2X2X2X2X2X2X2X2X2X2X2X2X2X2X2X2X2X2X2X2X2X2X2X,X;X6X6X6X6X6X6X6X6X",
"6X6X6X6X6X;X2X4X5X5X5X5X5X5X5X5X5X5X5X5X5X5X5X5X5X5X5X5X5X5X5X5X5X5X5X5X5X5X5X5X5X5X5X5X5X5X5X5X5X5X5X5X5X5X5X5X5X5X5X5X5X5X5X5X5X5X5X5X5X5X5X5X5X5X5X5X5X5X5X5X5X5X5X5X5X5X5X5X5X5X5X5X5X5X5X5X5X5X5X5X5X5X5X5X5X5X5X5X5X5X5X5X5X5X5X5X5X5X5X5X5X5X5X5X5X5X5X5X5X4X3X#X6X6X6X6X6X",
"6X6X6X6X,X5X5X5X5X5X5X4X5X4X5X5X4X5X5X4X4X5X5X4X5X5X4X5X5X4X5X5X4X5X5X5X5X5X4X5X5X4X5X4X4X5X5X5X5X5X4X5X5X4X5X5X5X4X4X5X5X5X4X5X5X5X5X4X5X4X5X5X5X4X5X4X4X5X5X4X5X5X5X5X5X5X4X4X4X5X5X4X5X5X4X5X5X4X5X4X4X5X5X4X5X5X5X5X4X5X5X5X5X5X5X4X5X5X4X5X5X5X4X5X4X5X5X5X5X5X5X5X2X6X6X6X6X",
"6X6X6X,X5X5X4X;X{.L.c.c.c.c.c.c.c.c.b.c.b.C.c.c.b.c.c.b.b.c.c.c.c.c.c.c.c.c.c.c.b.b.c.b.b.c.b.M.c.c.c.c.c.c.c.c.b.b.c.c.c.c.c.c.c.c.c.c.v.b.b.M.c.c.c.c.b.c.c.b.c.c.c.M.c.c.b.b.c.c.c.b.c.c.c.c.c.c.b.c.b.c.c.b.v.b.b.M.c.c.c.c.b.b.v.b.c.c.c.c.c.c.c.c.b.c.b.K.~.;X4X5X5X2X6X6X6X",
"6X6X,X5X4X2XE.M                                                                                                                                                                                                                                                   M E.2X4X5X,X6X6X",
"6X#X4X3X2XK.  N j.K.P.L.P.K.P.K.L.L.L.L.L.L.L.P.L.L.L.L.L.L.L.L.L.P.L.L.L.L.P.P.L.L.L.L.L.L.L.P.L.L.L.P.K.L.L.L.L.L.L.L.L.L.L.L.L.L.L.L.P.L.L.L.L.L.L.P.K.L.L.L.L.L.L.L.L.L.L.L.L.K.L.L.L.L.L.L.L.L.L.L.K.L.L.L.L.L.L.L.L.L.L.L.L.L.L.L.L.L.P.P.L.L.P.L.L.L.L.L.j.N   L.2X4X4X#X6X",
"6X,X4X2XE.  M K.E.E.E.E.E.E.E.E.E.E.E.E.E.E.E.E.E.E.E.E.E.E.E.E.E.E.E.E.E.E.E.E.E.E.E.E.E.E.E.E.E.E.E.E.E.E.E.E.E.E.E.E.E.E.E.E.E.E.E.E.E.E.E.E.E.E.E.E.E.E.E.E.E.E.E.E.E.E.E.E.E.E.E.E.E.E.E.E.E.E.E.E.E.E.E.E.E.E.E.E.E.E.E.E.E.E.E.E.E.E.E.E.E.E.E.E.E.E.E.E.E.K.M   E.2X5X,X6X",
"6X2X3X#XM   %.z.j.h.h.h.h.h.h.h.h.h.h.h.h.h.j.h.h.h.h.h.h.h.h.h.h.h.h.h.h.h.h.h.h.h.h.h.h.h.h.h.h.h.h.h.h.h.h.h.h.h.h.h.h.h.h.h.h.h.h.h.h.h.h.h.h.h.h.h.h.h.h.h.h.h.h.h.h.h.h.h.h.h.h.h.j.h.h.h.h.h.h.h.h.h.h.h.h.h.h.h.h.h.h.h.h.h.h.h.h.h.h.h.h.h.h.h.h.h.h.h.f.z.f.  M #X4X2X6X",
"+X2X2X!.  $ I Y Y U U U U U U U U U U U U U  . . .U U U U U U U U U U U U U Y U U U U U U U U U  .U U U U U U U U U U U U U U U U U U  .U U U  .U U U U U U U U  .U U U U U  .U U U U U U U U U  .U U U U U U U U U U U U U U U U U U U U U U  .U U U U U U U U Y U I $   W.2X2X+X",
"#X2X,XK.  # M S S S S S S S S S S S S S S S S S S S S S S S S S S S S S S S S S S S S S S S S S S S S S S S S S S S S S S S S S S S S S S S S S S S S S S S S S S S S S S S S S S S S S S S S S S S S S S S S S S S S S S S S S S S S S S S S S S S S S S S S S S S m $   L.,X2X#X",
";X2X;Xc.  # 9 r n n n n n n m m n n n n n m n n n n n n n n n n n n n n n n n n n n m n n n n n n n n n n n n n n n n n n n n n n n n n n n n n n n n n n n m n n n n n n n n n m n n n n n n n n n n n n n n n n n n n n n n n n n n n n n n n n n n n n n n n n N 2 &   b.;X2X;X",
"#X2X;Xv.  & % , 2 < 7 9 < 1 7 9 < < 9 7 < 7 < < < 7 9 7 9 9 7 7 9 9 7 9 7 7 9 9 7 7 9 9 9 9 9 9 9 9 9 9 9 7 9 7 7 7 2 7 7 7 9 9 7 7 9 7 9 2 7 7 7 7 7 7 7 7 7 7 9 < 7 7 2 7 9 9 9 9 7 7 7 7 7 7 9 9 9 7 9 7 7 9 7 7 7 7 9 7 9 9 < 9 9 9 9 9 < 7 9 9 9 9 9 7 9 < < , , %   M.;X2X#X",
"#X,X;Xv.  % 9 9 7 7 9 7 e 1 @ + = 9 w w < @ @ @ 8 w 7 w 7 7 e r r r 9 7 7 w 9 e r r r e 7 9 e r r 9 9 e r r r r r e w 7 7 7 w r r r r r r r r 7 7 w r r 9 7 7 7 w 7 7 7 r r r r r r 9 w 7 7 w r r r r r r w w 7 7 7 9 e r r r e w w w w r r r r r r r r w 7 w 7 7 < < ,   c.;X,X#X",
"#X,X;Xv.. , w e e t y q B R. XXX{.#.- q C. X}. XP.q e y t t ; + o = t t t t y 8 @ o + ; i t - o = e y ; + + + o + - e y y y 1 + + o X o X X @ e y ; o @ 3 i u t t y y q @ o + X o @ ; y t y 8 + + o X o @ 1 y y t y i q = O + ; y y y 8 @ o + + + + o + 8 y t e e e w <   v.;X,X#X",
"+X;X;Xv.O 9 r i h h B q h XX5X5X5XY.+ h @X5X5X5X'.= h B i i P g.g. .j h h h i K g.g.g.P q B #.g.$.C t P g.g.=.g.$.P 0 6 j h L g.g.g.g.g.g.g.g.K q | g.=.P u i h h h u K =.g.g.g.g.$.K 6 u u P g.g.g.g.g.#.C 6 i B y : h  .k.%.C - t h P =.=.=.=.=.=.$.=.| h h h i y y 9 . v.;X;X+X",
"+X;X#Xv.O e i j j j C l g }.5X4X5X@X5 g.3X5X5X5XQ.: j A h g Q.3X3X;X| 0 C V 6 g.>X3X2X).: g R.4XXXJ : k.,X2X2X4X3X<X X#.0 0 n.>X2X2X3X3X3X4X;X#.= C.3X,XM.5 Z j j D 6  .*X3X1X3X3X2X>XP.g 6 n.>X3X2X2X3X3X=Xn.0 h l M.#X3X5X3X;XY.D = M.2X5X3X2X2X2X5X3XV.: C j V h i r O v.#X;X+X",
"+X;X#Xz.@ t j V D D F j l XX5X+X2X5Xn. X5XXX3X5X).4 J H g | >X5X5X5XR.4 F F f =.4X5X5X4XV.= ).5X=Xj 4 l.5X5X=X|.*X4X5X*X' 5 k.5X5X+XR.Q.R.'.). .: C.5X5XM.4 F D Z F f | ,X5X#XY.Y.@X5X;XH : M.5X5X|.R.R.*X5X;X| 4 Y.5X5X<X#X,X5X5X).4 n.*X#X:X5X5X;X*X*XC.s J Z Z j j i o z.#X;X+X",
"%X#X#Xz.= h J D J G H G b $X5X).`.5X>X3X>XC.3X5X'.s H H s R.5X#X`.5X:X) b L k =.3X3X,X5X3Xn.Y.5X@XG s l.5X5XV.p v B.5X5XY.> k.4X5X).` ;.;.) s ) s M.5X4XM.a / H F ) k | >X5X).s b ).5XXXG s n.4X3X:.* 4 S.5X4X&.' ,X5XXX| v ) `.5X3Xl.k | p m.3X5XB.p L ) H G F F D D B @ v.+X*X%X",
"%X#X+Xj.- V J H / / _ G G $X5X'.-.3X5X5X).-.5X5X'.c ) G ` :X5Xm.E 2X5XT.c ` b ;.4X2XS.-X5X<X&X5X&X/ k m.5X5XY.k b _ :X5X).p N.4X5X4X2X4X1XB.k ' c C.5X5XV.k ` ) ) ' b &.>X5X2X>X>X5X3XB.c b M.4X5X:X=X#X,X5X$Xb m.5X5Xn.p ` a &.2X5XY.d / a m.4X5XB.a G ^ ) / / ^ H D V = v.+X#X}.",
"}.#X+Xj.3 Z / / ) _ _ ( ( $X5X`.~ @X5X2X&.7.5X5X'.b _ E S.5X3XS.N.=X5X=X` ( E m.4X3X&.7.<X5X5X5X@X_ E m.5X5XY.z c *.<X5X).d N.4X5XoXT.'.).7.E _ E S.5X4XN.d ^ E E ( E &.>X5X@X(.T.OX5X&X&.x G.3X5X>X,X5X5XOX*.c N.4X5XT.d ( z N.4X5XT.c *.E Z.4X5XF.E *._ _ _ ) _ ) ^ D - v.%X#X}.",
"{.+X%Xj.0 D ) _ { { X.{ ] oX5X].z H.5XoX~ m.5X5X'.( ] X.@X5X3X>X<X<X5X5XT.Q [ m.4X3XN.R Z.>X5X5X&X@.Q N.5X5X).+.m.OX5X5XG.T Z.4X5XH.T ] ] *.6.&.Q G.5X5X).7.Z.N.Z.Z.( 6.<X5X[.d R H.5X5XZ.T G.5X4Xm.O.=X5X.XQ ( &.&X5X>X(.N.H.>X5X>X7.( *.Q Z.4X5XF.Q *.} X.X.{ } _ ) F 6 z.%X$X}.",
"}.+X}.j.g ^ _ X.O.O.*.o.o.=X5XoXW 6.@XF.W D.5X5X.X[ ] T.5X3XH.J.H.G.&X5X>X6.! Z.5X5XZ.@.[ J.4X5X-X*.! H.5X5X5X3X5X5X5X].O.[ H.5X5X4X1X1X<X2X:XA.W (.5X5X5X5X4X5X5X&XW 7.1X5X4X1X1X4X5X=X7.Q H.5X5XZ.T (.5X5X'.o.@.A.-X5X5X5X5X5X,XD...*.*.[ F.5X5X(.! *.+.+.+.O.O.@._ / 6 z.}.+X{.",
"{.%X}.j.l ) X.+.1.1.2.>.4..X-X'.1.1.q.6.,.D.&X-X[.<.>.[.-X'.......! D.-X=XA...D.=X&XA.>.>.2.].:X.X5.o.J.&X=X-X-X-XoX(.3.>.>.D.&X=X-X:X-X-X>X&Xr...(.=X=X=X-X=X-X:X].,.A.@X-X-X:X:X=X].r.,.,.D.&X&XF...q.oX>X.Xq.O.,.q.[.&X-X=X[.r.,.1.1.1.,.D.&X&X/.,.1.1.3.1.1.>.*.X.) g z.}.+X{.",
"{.}.}.h.l _ *.1.3.3.5.5.5.9.3.9.5.5.3.3.4.9.3.5.5.9.5.9.8.3.9.4.9.4.4.3.4.9.4.4.5.5.9.4.9.4.4.3.9.5.3.9.8.3.3.3.3.<.,.3.5.4.5.5.5.3.3.3.3.3.5.9.3.9.3.3.8.<.3.3.5.9.3.5.9.3.3.3.3.<.<.3.4.4.5.5.3.5.5.9.3.5.5.9.3.9.<.,.<.3.<.,.<.3.5.5.5.5.5.5.5.9.3.5.5.3.5.5.3.3.*._ l h.{.+X{.",
"~.%X{.h.v X.1.4.9.9.9.w.9.8.8.8.w.w.0.w.w.w.8.8.8.0.0.8.8.0.0.0.w.0.9.8.8.9.w.8.8.8.0.w.0.w.8.8.8.0.e.9.8.9.8.8.8.9.0.e.0.0.0.8.8.8.8.8.8.8.8.0.0.9.8.8.8.8.8.8.8.9.0.9.8.8.8.8.8.8.0.w.0.0.9.8.8.9.0.0.8.8.8.9.0.0.w.e.9.8.9.0.0.0.0.0.0.0.9.8.3.9.0.0.0.0.9.9.9.3.1.} v h.{.}.~.",
"W.}.~.f.b X.2.9.w.e.t.t.t.u.u.t.e.e.e.t.e.e.u.u.u.e.e.u.u.e.e.e.t.t.e.u.u.t.t.t.u.u.e.e.e.e.u.u.e.e.e.e.e.u.e.u.u.u.t.e.e.e.u.e.u.u.u.u.u.u.u.e.e.e.u.u.u.u.u.u.u.e.t.t.u.u.t.u.u.t.u.e.t.e.t.u.u.t.t.t.t.u.t.t.e.t.e.e.u.e.u.e.t.t.e.t.e.t.t.u.y.t.t.e.t.t.t.e.e.9.3.X.b h.!.}.W.",
"W.}.!.f.D O.4.e.t.y.y.y.i.i.i.i.p.p.y.p.p.p.y.y.i.p.p.i.p.p.p.p.y.y.a.y.y.y.i.y.p.p.p.p.p.p.y.i.p.u.p.p.p.u.p.p.i.y.p.p.p.p.p.y.y.y.y.y.y.i.i.i.i.i.y.i.y.y.i.y.i.i.i.i.y.i.i.y.y.y.y.p.i.p.i.y.i.i.y.y.i.i.i.p.i.p.p.i.p.p.p.p.p.p.y.i.i.p.i.y.i.i.i.i.i.i.y.y.t.w.5.+.b h.W.}.W.",
"U.{.W.z.G O.5.e.y.a.a.a.a.a.a.a.a.a.a.a.a.a.a.a.a.a.a.a.a.a.a.a.a.a.a.a.a.a.s.a.a.a.a.a.a.a.a.a.^.a.a.a.a.a.a.^.a.a.a.a.a.a.a.a.s.a.a.s.a.a.a.a.s.a.a.a.a.a.s.a.a.a.a.a.a.a.s.s.s.s.a.a.a.a.a.s.s.a.s.a.a.a.a.a.a.a.a.s.a.a.a.a.a.s.a.s.a.a.a.s.s.a.a.a.a.a.s.p.y.e.9.o.D h.{.{.E.",
"L.W.!.c.J @.9.e.i.a.s.d.^.s.^.^.^.^.^.^.^.^.d.d.d.d.d.d.d.d.d.d.d.d.d.d.d.d.d.^.d.d.d.d.^.s.^.^.d.d.d.d.^.^.s.^.^.s.^.s.s.^.^.s.s.d.d.d.d.d.d.d.s.d.d.d.d.d.d.d.s.d.s.^.s.^.s.d.s.s.d.d.d.d.s.^.d.d.d.d.s.d.d.d.s.s.^.s.s.^.^.^.s.s.s.^.s.^.s.^.^.s.^.s.s.s.s.s.p.e.5.@.F c.~.!.K.",
"6XW.!.I.I ^ 1.0.t.a.s.s.s.^.^.^.^.^.^.^.^.^.^.^.^.^.^.^.^.^.^.^.^.^.^.^.^.^.^.^.^.^.^.^.^.^.^.^.^.^.^.^.^.^.^.^.^.^.^.^.^.^.^.^.d.d.d.d.d.d.^.^.^.d.^.d.^.^.^.^.^.^.^.^.d.^.^.d.^.^.d.d.^.^.^.d.^.^.^.^.^.^.^.^.^.^.^.^.^.^.^.^.^.^.^.^.^.s.^.^.^.^.^.s.s.s.s.p.u.0.6.^ I U.{.E.6X",
"6XI.~.W.v.K { 3.e.u.p.a.a.a.a.a.a.a.a.a.a.a.s.a.a.a.a.a.a.a.a.a.a.a.a.a.a.a.a.a.a.a.a.a.a.a.a.a.a.a.a.a.a.a.a.a.a.a.a.s.a.a.s.a.s.a.a.s.s.a.a.a.a.s.a.a.a.a.a.a.s.a.a.a.s.a.a.a.s.a.a.a.s.a.a.a.a.a.a.a.a.a.s.a.a.a.a.s.s.a.s.p.a.a.s.a.s.a.a.a.s.a.a.a.a.p.p.y.0.3._ K v.W.{.I.6X",
"6X6XE.W.E.z.K ( +.3.9.0.e.e.e.e.e.e.e.e.e.e.e.e.e.e.e.e.e.e.e.e.e.e.e.e.e.e.e.e.e.e.e.e.e.e.e.e.e.e.e.e.e.e.e.e.e.e.e.e.e.e.e.e.e.e.e.e.e.e.e.e.e.e.e.e.e.e.e.e.e.e.e.e.e.e.e.e.e.e.e.e.e.e.e.e.e.e.e.e.e.e.e.e.e.e.e.e.e.e.e.e.e.e.e.e.e.e.e.e.e.e.e.e.e.e.0.3.>.] K z.E.W.E.6X6X",
"6X6XK.E.E.E.c.U P ` { X.O.O.O.O.O.O.O.O.O.O.O.O.O.O.O.O.O.O.O.O.O.O.O.O.O.O.O.O.O.O.O.O.O.O.O.O.O.O.O.O.O.O.O.O.O.O.O.O.O.O.O.O.O.O.O.O.O.O.O.O.O.O.O.O.O.O.O.O.O.O.O.O.O.O.O.O.O.O.O.O.O.O.O.O.O.O.O.O.O.O.O.O.O.O.O.O.O.O.O.O.O.O.O.O.O.O.O.O.O.O.O.O.O.O.{ ` P U c.E.E.W.K.6X6X",
"6X6X6XL.E.E.U.U.b.z.z.z.z.x.x.z.x.z.x.x.x.x.x.x.x.x.x.x.x.z.x.x.x.x.x.x.x.z.x.x.x.x.x.x.x.x.x.x.x.x.x.x.x.x.x.x.x.x.x.x.x.z.x.x.x.x.x.z.z.x.x.z.x.x.x.z.x.x.x.x.x.x.z.z.x.x.x.x.x.x.x.z.x.x.x.x.x.x.z.z.x.x.x.x.z.z.x.x.x.x.x.x.x.x.x.z.x.z.x.z.x.x.z.z.z.j.z.z.b.I.I.E.E.K.6X6X6X",
"6X6X6X6Xc.I.E.E.E.U.U.U.U.E.U.U.U.U.U.E.E.U.U.U.U.U.U.U.U.U.U.E.U.U.E.U.U.U.E.U.E.U.U.U.U.U.U.U.U.U.U.E.U.U.U.U.E.U.U.U.U.U.E.U.I.U.U.U.U.U.E.U.U.U.U.U.E.U.U.U.E.I.U.U.U.U.U.U.U.U.E.U.U.U.U.U.U.E.U.U.U.U.E.U.U.U.E.U.E.U.U.U.U.I.U.U.E.U.U.U.E.U.U.E.U.U.U.E.E.E.E.L.c.6X6X6X6X",
"6X6X6X6X6X6Xb.K.L.I.U.U.I.I.I.I.I.I.I.I.I.I.I.I.I.I.I.I.I.I.I.I.I.I.I.I.I.I.I.I.I.I.I.I.I.I.I.I.I.I.I.I.I.I.I.I.I.I.I.I.I.I.I.I.I.I.I.E.I.I.I.I.I.I.I.I.I.I.I.I.I.I.I.E.I.I.I.I.I.I.I.I.I.I.I.I.I.I.I.I.I.I.I.I.I.I.I.I.I.I.I.I.I.I.E.I.I.I.I.I.I.I.I.I.I.I.I.I.L.K.K.6X6X6X6X6X6X",
"6X6X6X6X6X6X6X6X6X6X6X6X6X6X6X6X6X6X6X6X6X6X6X6X6X6X6X6X6X6X6X6X6X6X6X6X6X6X6X6X6X6X6X6X6X6X6X6X6X6X6X6X6X6X6X6X6X6X6X6X6X6X6X6X6X6X6X6X6X6X6X6X6X6X6X6X6X6X6X6X6X6X6X6X6X6X6X6X6X6X6X6X6X6X6X6X6X6X6X6X6X6X6X6X6X6X6X6X6X6X6X6X6X6X6X6X6X6X6X6X6X6X6X6X6X6X6X6X6X6X6X6X6X6X6X6X6X"
};
