/* XPM */
static char *_507954320762[] = {
/* columns rows colors chars-per-pixel */
"137 37 202 2 ",
"   c #000000",
".  c #000016",
"X  c #000E26",
"o  c #001F38",
"O  c #001F32",
"+  c #001D2F",
"@  c #16242A",
"#  c #00233A",
"$  c #00293C",
"%  c #1F2F36",
"&  c #21292E",
"*  c #26353E",
"=  c #202C32",
"-  c #003545",
";  c #06394A",
":  c #1B3F4D",
">  c #003D51",
",  c #002A43",
"<  c #293C45",
"1  c #2B3E48",
"2  c #323E44",
"3  c #02455B",
"4  c #004559",
"5  c #1A4757",
"6  c #2F434D",
"7  c #30424B",
"8  c #214B5D",
"9  c #2A4653",
"0  c #324651",
"q  c #344A55",
"w  c #3B4C55",
"e  c #354D58",
"r  c #384E5A",
"t  c #35515E",
"y  c #39525F",
"u  c #064D61",
"i  c #075369",
"p  c #1C5468",
"a  c #015976",
"s  c #1C576C",
"d  c #264F60",
"f  c #2D5365",
"g  c #2B5A6D",
"h  c #275263",
"j  c #3A5461",
"k  c #3E5966",
"l  c #3F5B69",
"z  c #315768",
"x  c #295D72",
"c  c #345E71",
"v  c #07607A",
"b  c #2C6277",
"n  c #376173",
"m  c #396578",
"M  c #48494A",
"N  c #425057",
"B  c #435158",
"V  c #4E5355",
"C  c #545657",
"Z  c #404D54",
"A  c #415D6A",
"S  c #45616E",
"D  c #4A626F",
"F  c #5A656A",
"G  c #446372",
"H  c #4D6876",
"J  c #456778",
"K  c #4A6A7B",
"L  c #466879",
"P  c #556B76",
"I  c #556C78",
"U  c #687379",
"Y  c #737A7E",
"T  c #71777B",
"R  c #356B81",
"E  c #3D6E84",
"W  c #3A728A",
"Q  c #397B96",
"!  c #2F6980",
"~  c #436E83",
"^  c #4D6F80",
"/  c #4F7283",
"(  c #45768D",
")  c #4B788E",
"_  c #467287",
"`  c #527485",
"'  c #517789",
"]  c #54798C",
"[  c #59798A",
"{  c #5C7583",
"}  c #477D95",
"|  c #557E92",
" . c #587F93",
".. c #6C7B84",
"X. c #657C88",
"o. c #727D83",
"O. c #49839C",
"+. c #598195",
"@. c #538399",
"#. c #5B869B",
"$. c #5E889D",
"%. c #568195",
"&. c #7B8489",
"*. c #628596",
"=. c #618A9E",
"-. c #6C8593",
";. c #728C9A",
":. c #7C8B94",
">. c #6F8996",
",. c #5B8BA2",
"<. c #568DA6",
"1. c #5C91AA",
"2. c #638EA5",
"3. c #6490A6",
"4. c #6595AC",
"5. c #6997AE",
"6. c #6A98AF",
"7. c #6E93A5",
"8. c #7895A4",
"9. c #659AB4",
"0. c #6D9EB6",
"q. c #6F9FB8",
"w. c #7A9EB0",
"e. c #6FA1B9",
"r. c #71A4BE",
"t. c #7FA1B3",
"y. c #73A6C0",
"u. c #76ABC5",
"i. c #78ABC4",
"p. c #77ADC8",
"a. c #78ADC8",
"s. c #7CB3CF",
"d. c #7EB6D2",
"f. c #7FB8D4",
"g. c #878C8F",
"h. c #818C93",
"j. c #8A8E91",
"k. c #8E9194",
"l. c #89959B",
"z. c #929496",
"x. c #929698",
"c. c #9E9E9E",
"v. c #97999A",
"b. c #A0A09F",
"n. c #899DA8",
"m. c #949EA4",
"M. c #8AA1AE",
"N. c #93A2AB",
"B. c #9BA5AB",
"V. c #8CA5B3",
"C. c #88A6B6",
"Z. c #9BAAB2",
"A. c #96AAB7",
"S. c #9EB1BC",
"D. c #A5A5A6",
"F. c #A6A7A8",
"G. c #A6A8A8",
"H. c #AEAEAE",
"J. c #B1B0AF",
"K. c #ACB5BA",
"L. c #A9B6BE",
"P. c #B2B3B4",
"I. c #BBBBBB",
"U. c #B0B8BC",
"Y. c #A8AFB4",
"T. c #C0BFBF",
"R. c #BFC0BF",
"E. c #80B9D5",
"W. c #9CB3C1",
"Q. c #AEBBC3",
"!. c #A6BAC5",
"~. c #B3BEC4",
"^. c #BFBFC0",
"/. c #B6C2C9",
"(. c #B6C0C7",
"). c #BDCBD4",
"_. c #AFC2CD",
"`. c #C3C3C3",
"'. c #CBCCCB",
"]. c #C8CED1",
"[. c #CCD1D5",
"{. c #C8D3DB",
"}. c #D3D3D3",
"|. c #D3D9DC",
" X c #DCDCDC",
".X c #D8D8D7",
"XX c #D0D0CF",
"oX c #D4DCE2",
"OX c #CFDAE0",
"+X c #DBE1E5",
"@X c #DEE5E9",
"#X c #E3E3E3",
"$X c #E2E7EA",
"%X c #E5E9EC",
"&X c #ECECEC",
"*X c #ECEFF1",
"=X c #EEF1F3",
"-X c #F0F0F0",
";X c #F6F8F9",
":X c #FDFDFD",
">X c #F6F7F8",
",X c None",
/* pixels */
",X,X,X,X,X,X,X,X#X&X-X-X-X-X-X-X-X-X-X-X-X-X-X-X-X-X-X-X-X-X-X-X-X-X-X-X-X-X-X-X-X-X-X-X-X-X-X-X-X-X-X-X-X-X-X-X-X-X-X-X-X-X-X-X-X-X-X-X-X-X-X-X-X-X-X-X-X-X-X-X-X-X-X-X-X-X-X-X-X-X-X-X-X-X-X-X-X-X-X-X-X-X-X-X-X-X-X-X-X-X-X-X-X-X-X-X-X-X-X-X-X-X-X-X-X-X-X&X#X,X,X,X,X,X,X,X,X",
",X,X,X,X,X#X-X;X:X:X:X:X:X:X:X:X:X:X:X:X:X:X:X:X:X:X:X:X:X:X:X:X:X:X:X:X:X:X:X:X:X:X:X:X:X:X:X:X:X:X:X:X:X:X:X:X:X:X:X:X:X:X:X:X:X:X:X:X:X:X:X:X:X:X:X:X:X:X:X:X:X:X:X:X:X:X:X:X:X:X:X:X:X:X:X:X:X:X:X:X:X:X:X:X:X:X:X:X:X:X:X:X:X:X:X:X:X:X:X:X:X:X:X:X:X:X:X:X:X;X>X#X,X,X,X,X,X",
",X,X,X,X&X:X:X:X:X:X:X;X:X:X;X:X:X;X:X;X:X;X:X:X:X:X;X:X;X:X:X;X:X;X:X:X:X;X:X:X:X;X:X;X:X;X:X:X:X:X;X:X;X:X:X;X;X:X;X:X:X:X;X:X:X;X:X;X:X;X:X:X:X:X;X:X:X;X:X;X:X;X:X:X:X;X:X:X;X:X:X;X:X;X:X:X:X:X;X:X;X:X:X;X:X:X;X:X:X:X:X;X:X;X:X;X;X:X;X:X:X;X:X:X;X:X:X:X:X:X:X:X&X,X,X,X,X",
",X,X,X&X:X:X;X#X`.G.c.c.c.c.b.c.c.c.c.D.b.c.b.m.c.b.b.c.b.b.b.b.b.c.b.m.c.b.b.c.c.b.b.b.b.c.b.m.c.b.b.c.b.c.b.b.c.D.c.c.c.c.b.c.c.c.c.D.c.c.c.m.c.c.b.c.c.c.D.b.c.c.c.m.c.b.b.c.b.c.b.b.c.c.b.m.c.c.b.c.b.c.b.b.b.m.b.c.c.b.c.c.b.b.b.b.b.b.b.b.c.b.c.c.b.b.c.G.R.#X;X:X:X-X,X,X,X",
",X,X&X:X;X-XP.C                                                                                                                                                                                                                                                   C P.-X;X:X&X,X,X",
",X.X:X>X-XF.  M z.D.F.F.F.F.F.D.F.F.F.F.F.F.G.G.F.F.F.F.F.F.F.F.F.F.F.F.F.G.G.G.F.F.F.F.F.F.F.G.F.F.F.F.F.F.F.F.F.F.F.F.F.F.F.F.F.F.F.G.G.F.F.F.F.F.F.F.D.F.F.F.F.F.F.F.F.F.G.G.D.F.F.G.F.G.F.F.F.F.F.F.F.F.F.F.F.F.F.F.F.F.F.F.F.F.F.G.F.F.F.F.F.F.G.G.F.F.F.D.z.M   F.-X;X;X X,X",
",X&X;X-XP.  V F.P.P.P.P.P.P.P.P.P.P.P.P.P.P.P.P.P.P.P.P.P.P.P.P.P.P.P.P.P.P.P.P.P.P.P.P.P.P.P.P.P.P.P.P.P.P.P.P.P.P.P.P.P.P.P.P.P.P.P.P.P.P.P.P.P.P.P.P.P.P.P.P.P.P.P.P.P.P.P.P.P.P.P.P.P.P.P.P.P.P.P.P.P.P.P.P.P.P.P.P.P.P.P.P.P.P.P.P.P.P.P.K.P.P.P.P.P.P.P.P.P.D.C   P.-X:X&X,X",
",X&X>X XC   g.z.j.j.j.j.j.j.j.j.j.j.j.j.j.j.j.j.j.j.j.j.j.j.j.j.j.j.j.j.j.j.j.j.j.j.j.j.j.j.j.j.j.j.j.j.j.j.j.j.j.j.j.j.j.j.j.j.j.j.j.j.j.j.j.j.j.j.j.j.j.j.j.j.j.j.j.j.j.j.k.j.j.j.j.j.j.j.j.j.j.j.j.j.j.j.j.j.j.j.j.j.j.j.j.k.j.j.j.j.j.j.j.j.j.j.j.j.j.j.j.j.j.z.g.  C .X:X&X,X",
"}.-X-XT.  & T T Y Y Y Y Y Y Y Y Y Y Y Y Y Y Y Y o.Y Y Y Y Y Y Y Y Y Y Y Y Y Y Y Y Y Y T Y Y Y Y o.Y o.Y o.o.Y Y Y Y Y Y Y Y Y Y Y Y Y Y Y Y Y Y Y Y Y Y Y Y Y Y Y Y Y Y Y T Y Y Y Y Y Y Y Y Y Y o.Y Y Y Y Y Y Y Y Y Y Y Y Y Y Y Y Y Y Y Y Y Y Y o.Y Y Y Y Y Y Y T T U &   I.-X-X}.",
" X-X&XD.  @ C F F F F F F F F F F F F F F F F F F F F F F F F F F F F F F F F F F F F F F F F F F F F F F F F F F F F F F F F F F F F F F F F F F F F F F F F F F F F F F F F F F F F F F F F F F F F F F F F F F F F F F F F F F F F F F F F F F F F F F F F F F F V &   F.&X>XoX",
"#X-X&Xv.  @ 2 w N N N N N B B B B B N B N B N N B B B N B B B B N B B B N N B B B B N N B B B B B B B B B B B B B B B B N B B B B B B B B B N B B N B N N N B B B B N N B N B B B B N B N B N N B B B B B B B B N N B B N N B B B B N N N B N B B B B B B B N N B Z 2 =   b.#X-X#X",
"#X-X#Xv.  = * < 7 1 6 6 6 6 6 6 7 7 7 6 6 6 6 6 7 7 7 6 7 6 6 7 6 6 6 6 7 7 7 7 7 7 6 6 6 6 6 6 1 1 1 1 1 0 2 7 7 7 7 2 6 7 7 7 6 6 7 7 7 7 6 6 6 6 6 6 7 7 7 7 7 7 7 6 7 6 7 7 7 7 7 7 7 6 7 6 7 7 7 7 7 6 6 6 7 6 6 6 6 6 6 6 7 7 6 7 6 6 6 6 7 7 7 7 2 6 6 6 7 < * *   c.#X-X X",
" X&X#Xv.  * 6 6 6 6 6 6 6 6 6 6 7 7 7 6 6 9 6 6 6 6 6 6 7 6 6 6 6 6 9 6 6 6 6 6 6 6 6 6 7 6 6 0 7 $ $ 6 0 6 0 w w q 9 9 7 w w w 6 6 q w w 0 6 6 6 6 6 6 0 w w 0 7 6 0 6 7 q w w w 6 6 6 6 6 6 6 6 6 6 6 6 6 6 6 6 6 6 6 6 6 6 6 7 6 6 6 6 6 9 6 6 6 6 6 6 6 6 6 6 1 1 <   c.#X&X X",
" X#X#Xv.. < 0 0 q q e e e e e e e e r t e e r e t e e e e e e r e e r e e e e e r r e e q w q 9 l.[.].m.5 r 9 $ o ; e r 6 , o - e e : # # : r e t e e t 9 $ o ; e e e t t - o # - e e e e e t e e r e e e e e e r r e r e e e e r r e e e e r e e e r e r e e e q q 0 1   v.#X&X X",
".X#X#Xv.X 6 r r y j j j j j j j j j j j j j j j j j j j j j j j j j j j j j j j j j j j y A y > B.:X:XP.$ y P g.h.o.j e P h.h.o.j t U h.g.U t y y y j j P h.h.o.A y j t j o.h.h...y y j j j j y j j j j j j j j t j j j j j j j j j j j j j j j j j j j j j j t y r e 0 . v.#X#X.X",
"}.#X Xv.+ 0 y k k l l l l l l l l l l l l l l l l l l l l l l l l l l l l l l l l l l l A S A 3 B.:X:XK.> f ..oX;XU.d 8 ..oX;XK.8 5 m.>X&XN.4 S A l S 5 &.+X>XK.5 A D d D [.;X;X}.S f S l l l l l l l l l l l l l l l l l l l l l l l l l l l l l l l l l l l l A j y r X v. X#X}.",
"}.#X Xz.$ t l A S G G S G G G G G G G G G G G G G G S G G G G G G G G G G G G G G G G G G H G p B.:X:XK.5 z { &X:X~.p g X.*X:XU.u p m.:X:XN.4 H G G H p X.-X:XK.3 K H u l.>X:X:X;Xm.3 K G G G G G G G G G G G G G G G G G G S G J G G G G G G G G G G G G G G S G A A r O v..X#X}.",
"XX X.Xz.$ j S L L L K K K K K K K K K K K K K K K K K K K K L K K K K K K L K K K K L K K K K g Z.:X:XK.s n *.$X:X~.g n -.&X:X~.s x m.:X:XN.i I K L ` g -.&X:XK.i ` G c ].:X].[.:X{.n L K K K K K K K K K K K K K K K K K K K K K K K K K K K K K K K K K K L K L L A A $ z.}.#XXX",
"XX X}.z.; S K K K / / / / / / / / / / / / / / / / / / / / / / / / / / / / / / / / / / ` ~ ^ ` m Z.:X:XQ.b m -.%X:X(.m ~ >.%X:X~.b b N.:X:XZ.x ] ` ` [ n >.=X:XQ.s [ b 8.>X>X] ;.:X;Xn.x ` ` ` / / ` / / / / / / / / / / / / ` / / / / / / / / / / / / / / / / ^ ^ K L A - v.}. X'.",
"'. XXXj.5 S K ` ] ] ] ] ] ] ] ] ] ] ] ] ] ] ] ] ] ] ] ] ] ] ] ] ] ] ] ] ] ] ] ] ] ] ' ] 8.;.v a L.:X:XQ.R ( *.%X:X/.a a *.&X:X~.b W Z.:X:Xn.a ~ R R ' E ;.=X:X~.R ] _ /.:X%XV.Z.%X:X{.E ] ] ] ] ' ] ] ] ] ' ] ] ] ] ] ] ] ] ] ] ] ] ] ] ] ] ] ] ] ] ] ] ] ] ] ] ' ` K G ; z.XX.X'.",
"'..XXXk.8 L ` ] | | +.+. .+.+. .+.+.+.+.+.%.+.+.+.+.+.+.+.+.+.+.+.+.+.+.+.+.+.+.+.+.) +.|.%XQ.!.oX:X:XL.( | | oX:X$XA.8./.:X:XS.W ( A.:X:XQ.8.V.M.V.V.( 7.*X:XQ.( ( 7.%X:X*X*X*X=X:X>XM.R =.+.+.+.+.+.+.+.+.+.+.+.+.+.+.+.+.+.+.%.+.+.+.+.+.+.+.+.+.+.+. .+.+.| ] ] ` K 5 z.'..X'.",
"`.}.'.k.h K ] +.$.#.$.$.=.=.=.$.$.$.$.$.$.$.=.$.$.$.$.$.$.$.$.$.$.$.$.$.$.$.$.$.$.2.O.V.;X:X:X:X:X:X+X7.#.=.@.A.=X:X:X;X:X:X{.2.$.} !.:X:X:X:X:X:X:X|.Q M.;X:X).Q | ).:X$XA.S.A.A.$X:XOX#.#.$.#.#.$.$.$.$.#.$.$.$.#.$.$.$.$.$.$.$.$.$.=.=.#.$.#.=.#.=.#.$.$.=.#.$. .] ^ 5 z.'.}.`.",
"'.XX'.j.z / +.$.2.2.2.3.2.3.3.3.3.3.3.3.3.3.3.3.2.3.3.3.3.2.2.3.3.3.3.3.3.3.3.3.3.2.2.t._.{.+X@XoX).t.<.2.3.,.,.C.).+X$XOX!.7.2.2.,.W.oXoX+X@X@X@X$X).@.C.OX+X/.,.7.).@X!.Q O.Q O.!.%X{.w.<.7.2.2.4.3.3.2.2.3.2.3.3.3.3.2.2.2.2.3.3.2.2.3.4.2.2.2.2.2.4.3.2.2.2.2.=.+.` h k.'.}.`.",
"R.'.'.j.z ] =.3.3.4.5.5.5.5.6.5.5.5.5.5.5.5.5.5.5.5.5.5.5.5.5.5.5.5.5.5.5.5.5.5.5.5.5.4.<.1.4.4.4.1.1.5.5.5.0.9.1.1.4.4.1.<.4.6.5.5.6.5.9.4.4.4.1.4.0.0.5.0.5.6.9.5.0.5.5.6.0.0.5.5.5.6.6.5.6.6.5.5.5.5.0.5.5.5.5.5.5.5.5.5.5.0.5.5.5.5.5.5.5.5.5.5.5.5.5.5.5.5.5.2.#. .g k.`.}.`.",
"R.'.`.j.n  .2.5.0.0.0.0.q.0.e.q.q.r.q.e.q.e.e.0.e.0.e.e.0.e.e.e.0.q.0.0.q.0.e.0.0.e.q.0.0.0.9.9.9.0.q.0.0.q.0.r.r.0.9.0.0.0.r.q.0.e.0.9.9.9.9.0.9.e.0.e.e.9.9.0.0.q.9.9.0.q.0.0.q.0.9.9.0.r.0.q.0.0.0.q.e.e.q.0.q.0.q.0.q.0.q.0.q.0.q.0.e.0.0.e.0.0.e.0.q.e.q.0.0.4.2. .c j.`.'.R.",
"I.'.`.g.m +.3.0.r.r.r.r.r.r.r.r.r.r.r.r.r.y.r.r.y.y.y.r.r.r.r.r.y.y.y.y.y.y.y.r.y.r.y.y.y.y.i.i.y.y.y.y.y.y.r.r.r.y.r.i.r.r.r.r.y.y.y.y.i.r.r.i.r.r.r.r.y.r.r.i.r.r.i.i.y.y.y.y.y.y.i.y.r.r.r.r.y.y.r.y.r.y.r.r.r.y.y.y.y.y.r.y.y.y.y.y.y.y.y.r.r.y.y.r.r.y.r.r.e.0.3.$.n j.R.'.I.",
"I.'.R.g.J $.5.r.y.p.p.a.s.a.a.a.i.i.a.a.a.a.a.a.p.p.p.p.a.i.a.a.p.a.a.a.a.p.a.a.a.a.p.a.a.a.a.a.a.u.a.p.a.a.a.a.p.p.p.p.a.a.a.a.a.a.a.a.p.p.p.p.a.i.a.a.p.p.p.p.a.i.i.a.p.a.p.p.a.p.a.p.p.a.a.p.a.p.a.p.a.a.a.i.u.p.a.u.a.u.a.u.a.p.a.a.a.a.p.p.a.a.a.a.a.u.a.i.y.r.5.$.m j.I.'.I.",
"J.`.I.z.J +.0.r.a.a.s.s.s.s.s.s.s.E.s.s.s.s.s.s.s.s.s.s.s.s.s.E.s.s.s.s.s.s.s.s.s.s.s.s.s.s.a.d.d.d.s.s.s.s.s.s.s.s.s.s.s.s.s.s.s.s.s.s.s.s.s.s.s.s.s.E.s.s.s.s.d.s.s.s.s.s.s.s.s.s.s.s.s.s.s.s.s.s.s.s.s.s.s.E.s.s.d.d.d.s.d.s.s.s.s.s.s.s.s.d.d.s.s.s.s.s.s.s.p.r.5.#.J k.T.`.P.",
"G.T.T.c.G  .5.r.a.s.d.d.E.d.E.E.E.E.E.E.E.E.d.E.f.f.f.f.E.E.E.d.f.f.f.f.f.f.f.f.E.f.f.f.E.E.E.f.f.f.f.f.E.E.E.d.d.E.f.f.f.f.E.d.f.f.f.f.f.f.f.f.f.f.f.f.f.f.f.f.d.f.f.f.f.f.f.f.f.f.f.f.f.f.f.f.f.E.d.E.E.E.d.E.f.f.f.f.f.f.f.f.f.f.f.f.f.f.f.f.f.f.f.f.d.d.d.s.p.r.5.@.H c.R.T.F.",
",XP.T.J.U _ 2.e.u.s.d.d.E.E.E.E.E.E.E.d.E.E.E.E.E.E.E.E.E.E.E.E.f.f.E.E.E.E.E.E.E.E.E.E.E.E.E.E.E.E.E.E.E.E.E.E.E.f.E.E.E.E.E.E.E.E.E.E.E.E.E.f.E.E.E.E.E.E.E.E.E.f.E.f.f.E.f.f.E.E.E.f.E.E.E.E.E.E.E.E.E.E.E.E.f.f.f.E.E.E.E.f.f.E.E.E.f.f.f.f.f.f.f.f.E.d.s.s.u.e.7.~ U J.`.P.,X",
",XJ.T.I.v.P | 4.0.y.a.s.s.s.s.s.s.s.s.s.s.s.s.s.s.s.s.s.s.s.s.s.d.d.d.d.s.s.d.s.d.s.s.s.d.a.s.s.s.s.d.s.s.d.s.s.s.d.s.s.s.s.d.s.s.s.s.s.s.s.s.d.s.s.s.s.s.s.s.d.s.d.s.s.s.d.d.d.s.s.s.s.s.s.s.s.s.s.s.s.s.s.s.s.d.d.s.d.s.s.d.d.s.d.d.s.d.d.s.d.d.s.d.s.s.s.a.y.r.7.] P v.I.`.H.,X",
",X,XP.I.P.z.P ) ,.5.0.q.q.r.r.r.r.r.r.r.r.r.r.r.r.r.r.r.r.r.r.r.e.y.e.e.r.r.e.r.r.r.r.r.r.r.r.r.r.r.e.r.r.r.r.r.r.r.r.r.r.r.r.r.r.r.r.r.r.r.r.r.r.r.r.r.r.r.r.e.r.r.r.r.r.e.e.y.r.r.r.r.r.r.r.r.r.r.r.r.r.r.r.r.e.y.e.r.r.r.e.r.r.e.r.r.e.y.e.y.e.r.y.e.e.e.0.5.,.) I v.J.I.P.,X,X",
",X,XD.P.P.J.c.Y X.{  .+.#.#.#.#.#.#.#.#.#.#.#.$.#.#.#.#.#.#.#.#.#.#.#.#.#.#.#.#.#.#.#.#.#.#.#.#.$.#.#.#.#.#.$.#.#.#.#.#.#.#.#.#.#.#.#.#.#.#.#.$.#.#.#.#.#.#.#.#.#.#.#.#.#.$.#.#.#.#.#.#.#.$.#.#.$.#.#.#.#.#.#.#.#.#.#.#.#.#.#.#.#.#.#.#.#.#.#.#.#.#.$.#.+.#.| ] U o.c.P.P.I.D.,X,X",
",X,X,XF.J.I.J.J.b.z.z.z.z.x.x.x.x.z.x.x.x.x.x.x.x.x.x.x.x.z.z.x.x.x.x.x.x.x.x.x.x.x.x.x.x.x.x.x.x.z.z.x.x.x.x.z.z.x.x.x.x.z.x.x.x.x.x.x.x.x.z.z.x.x.z.z.x.x.x.z.x.x.x.z.z.x.x.x.x.x.x.z.z.x.x.x.z.z.x.z.x.x.x.x.z.z.x.x.x.x.x.x.x.x.x.z.x.x.x.x.x.l.x.x.x.z.z.z.b.G.P.P.P.D.,X,X,X",
",X,X,X,Xb.G.P.P.P.J.J.J.J.J.H.P.J.J.J.P.P.J.J.J.J.J.H.J.J.J.J.P.J.J.P.J.J.J.J.P.J.J.J.J.J.J.P.J.J.J.J.P.H.P.J.J.J.J.P.H.J.J.P.J.H.P.J.J.J.J.P.J.P.J.J.J.P.J.P.J.J.J.P.J.J.J.J.J.H.P.P.J.J.J.J.J.P.J.J.J.J.P.J.J.J.J.P.J.P.J.J.J.H.H.J.J.J.J.J.P.J.J.J.J.J.J.J.P.P.P.P.G.c.,X,X,X,X",
",X,X,X,X,X,Xb.F.F.H.H.H.H.H.H.H.H.H.H.H.H.H.H.H.H.H.H.H.H.H.H.H.H.H.H.H.H.H.H.H.H.H.H.H.H.H.H.H.H.H.H.H.H.H.H.H.H.H.H.H.H.H.H.H.H.H.H.H.H.H.H.H.H.H.H.H.H.H.H.H.H.H.H.H.H.H.H.H.H.H.H.H.H.H.H.H.H.H.H.H.H.H.H.H.H.H.H.H.H.H.H.H.H.J.H.H.H.H.J.H.J.H.H.H.H.H.J.H.F.D.D.,X,X,X,X,X,X",
",X,X,X,X,X,X,X,X,X,X,X,X,X,X,X,X,X,X,X,X,X,X,X,X,X,X,X,X,X,X,X,X,X,X,X,X,X,X,X,X,X,X,X,X,X,X,X,X,X,X,X,X,X,X,X,X,X,X,X,X,X,X,X,X,X,X,X,X,X,X,X,X,X,X,X,X,X,X,X,X,X,X,X,X,X,X,X,X,X,X,X,X,X,X,X,X,X,X,X,X,X,X,X,X,X,X,X,X,X,X,X,X,X,X,X,X,X,X,X,X,X,X,X,X,X,X,X,X,X,X,X,X,X,X,X,X,X"
};
