/* XPM */
static char *_507954333652[] = {
/* columns rows colors chars-per-pixel */
"137 37 217 2 ",
"   c #000000",
".  c #000016",
"X  c #000925",
"o  c #001E39",
"O  c #001B36",
"+  c #001636",
"@  c #00233A",
"#  c #00293C",
"$  c #19282E",
"%  c #21292E",
"&  c #26353E",
"*  c #202C32",
"=  c #001A40",
"-  c #002E44",
";  c #003344",
":  c #04384C",
">  c #173B4A",
",  c #003952",
"<  c #002F50",
"1  c #2A3C45",
"2  c #2B3F48",
"3  c #253D48",
"4  c #323E44",
"5  c #03465B",
"6  c #174658",
"7  c #1F404F",
"8  c #2E434D",
"9  c #21414F",
"0  c #30424B",
"q  c #244B5C",
"w  c #294755",
"e  c #324651",
"r  c #344A55",
"t  c #3B4C55",
"y  c #354D59",
"u  c #394E5A",
"i  c #3A525E",
"p  c #35515E",
"a  c #055269",
"s  c #1A5469",
"d  c #005C7A",
"f  c #1D5D74",
"g  c #104D62",
"h  c #245365",
"j  c #2A5769",
"k  c #325564",
"l  c #3A5461",
"z  c #3E5966",
"x  c #3E5B69",
"c  c #355C6E",
"v  c #285D72",
"b  c #325E71",
"n  c #274F60",
"m  c #00617E",
"M  c #29637A",
"N  c #3C6376",
"B  c #386579",
"V  c #425057",
"C  c #435158",
"Z  c #4E5355",
"A  c #545657",
"S  c #454A4D",
"D  c #435A66",
"F  c #415D6B",
"G  c #495D67",
"H  c #45606E",
"J  c #4C626E",
"K  c #5A656A",
"L  c #446372",
"P  c #4E6977",
"I  c #4A6B7B",
"U  c #466878",
"Y  c #556A75",
"T  c #576C78",
"R  c #57717E",
"E  c #64747C",
"W  c #6B7479",
"Q  c #737A7E",
"!  c #71777B",
"~  c #616F77",
"^  c #0E6884",
"/  c #376C82",
"(  c #25728D",
")  c #3B728A",
"_  c #33738C",
"`  c #486F81",
"'  c #4E7283",
"]  c #44768C",
"[  c #4B788D",
"{  c #477386",
"}  c #537485",
"|  c #54798C",
" . c #5A7B8C",
".. c #577686",
"X. c #4D7D93",
"o. c #457C94",
"O. c #557E92",
"+. c #587F93",
"@. c #657B86",
"#. c #727D83",
"$. c #4A829B",
"%. c #598195",
"&. c #5B869B",
"*. c #5E889D",
"=. c #558298",
"-. c #798388",
";. c #638A9D",
":. c #658798",
">. c #7E8A92",
",. c #798F9A",
"<. c #7C929D",
"1. c #5C8CA3",
"2. c #568BA4",
"3. c #5C91AA",
"4. c #628EA4",
"5. c #6490A6",
"6. c #6695AD",
"7. c #6997AE",
"8. c #6A98AF",
"9. c #6C90A4",
"0. c #7697A8",
"q. c #649AB4",
"w. c #6D9DB5",
"e. c #6F9FB8",
"r. c #7B9EB1",
"t. c #6FA1B9",
"y. c #71A4BE",
"u. c #7EA0B2",
"i. c #73A6C0",
"p. c #77ABC5",
"a. c #78AAC3",
"s. c #77ADC8",
"d. c #78ADC8",
"f. c #7CB3CF",
"g. c #7EB6D2",
"h. c #7FB8D4",
"j. c #878C8F",
"k. c #818C93",
"l. c #8A8E91",
"z. c #8E9194",
"x. c #84949C",
"c. c #89959C",
"v. c #859097",
"b. c #929496",
"n. c #929698",
"m. c #9E9E9E",
"M. c #97999A",
"N. c #A0A09F",
"B. c #8498A4",
"V. c #849DAB",
"C. c #879AA5",
"Z. c #919FA7",
"A. c #95A3AB",
"S. c #9BA6AC",
"D. c #99A2A8",
"F. c #87A6B6",
"G. c #94A9B5",
"H. c #9BAAB4",
"J. c #95ADBB",
"K. c #99ABB5",
"L. c #9BB0BD",
"P. c #8BA1AE",
"I. c #A5A5A6",
"U. c #A6A7A8",
"Y. c #A5A8A9",
"T. c #AEAEAE",
"R. c #B1B0AF",
"E. c #A2ADB4",
"W. c #A0AFB8",
"Q. c #A3B2BC",
"!. c #ABB4BA",
"~. c #B2B3B4",
"^. c #BBBBBB",
"/. c #B2B9BC",
"(. c #C0BFBF",
"). c #BFC0BF",
"_. c #80B9D5",
"`. c #9EB5C3",
"'. c #ABBBC5",
"]. c #A6B9C4",
"[. c #B3BCC1",
"{. c #BABFC1",
"}. c #B2BFC8",
"|. c #BAC1C5",
" X c #B3C3CC",
".X c #BDC5CB",
"XX c #BBC6CC",
"oX c #BCCAD2",
"OX c #C3C3C3",
"+X c #CBCCCC",
"@X c #C2C9CE",
"#X c #CACFD1",
"$X c #C1CED6",
"%X c #CDD1D4",
"&X c #CBD6DC",
"*X c #C9D4DA",
"=X c #D3D3D3",
"-X c #D4D9DC",
";X c #DBDCDC",
":X c #D4D7D9",
">X c #D0D0CF",
",X c #D5DDE2",
"<X c #DBDFE1",
"1X c #CFDAE0",
"2X c #DCE1E5",
"3X c #DEE4E9",
"4X c #E3E3E3",
"5X c #E2E7EA",
"6X c #E5E9EB",
"7X c #EBECEC",
"8X c #ECEFF1",
"9X c #EEF1F3",
"0X c #F1F1F1",
"qX c #F6F7F8",
"wX c #F7F9F9",
"eX c #FDFDFD",
"rX c None",
/* pixels */
"rXrXrXrXrXrXrXrX4X7X0X0X0X0X0X0X0X0X0X0X0X0X0X0X0X0X0X0X0X0X0X0X0X0X0X0X0X0X0X0X0X0X0X0X0X0X0X0X0X0X0X0X0X0X0X0X0X0X0X0X0X0X0X0X0X0X0X0X0X0X0X0X0X0X0X0X0X0X0X0X0X0X0X0X0X0X0X0X0X0X0X0X0X0X0X0X0X0X0X0X0X0X0X0X0X0X0X0X0X0X0X0X0X0X0X0X0X0X0X0X0X0X0X0X0X0X0X7X4XrXrXrXrXrXrXrXrX",
"rXrXrXrXrX4X0XwXeXeXeXeXeXeXeXeXeXeXeXeXeXeXeXeXeXeXeXeXeXeXeXeXeXeXeXeXeXeXeXeXeXeXeXeXeXeXeXeXeXeXeXeXeXeXeXeXeXeXeXeXeXeXeXeXeXeXeXeXeXeXeXeXeXeXeXeXeXeXeXeXeXeXeXeXeXeXeXeXeXeXeXeXeXeXeXeXeXeXeXeXeXeXeXeXeXeXeXeXeXeXeXeXeXeXeXeXeXeXeXeXeXeXeXeXeXeXeXeXeXwXqX<XrXrXrXrXrX",
"rXrXrXrX7XeXeXeXeXeXeXeXeXwXeXeXeXeXeXwXeXwXeXeXeXeXwXeXeXeXeXwXwXeXeXeXeXeXwXeXwXeXeXwXeXqXeXeXeXeXwXeXeXeXeXwXeXwXwXeXeXeXwXeXwXeXeXwXeXqXeXeXeXwXeXeXwXeXeXwXeXwXwXeXeXeXwXwXwXeXeXwXwXeXeXeXeXwXeXeXwXeXeXwXeXwXwXeXeXeXeXwXwXeXeXwXwXeXeXeXeXeXwXeXwXeXeXeXeXeXeXeX0XrXrXrXrX",
"rXrXrX7XeXeXwX4XOXI.m.m.m.m.m.m.m.D.m.N.m.m.m.D.m.m.m.m.m.m.m.m.m.m.m.N.m.m.N.m.N.N.m.N.m.m.m.D.m.m.m.m.m.m.m.m.N.N.m.m.m.m.N.m.N.m.N.N.m.m.m.D.m.m.m.m.m.N.m.m.m.m.N.N.m.m.N.N.N.m.m.N.m.m.m.N.m.m.N.m.N.m.m.N.N.N.N.m.m.N.m.m.N.N.m.N.m.m.m.N.m.m.N.m.N.m.N.I.(.4XwXeXeX0XrXrXrX",
"rXrX7XeXwX0X~.A                                                                                                                                                                                                                                                   A ~.0XeXeX7XrXrX",
"rX=XeXqX0XI.  S z.I.U.U.U.U.U.U.U.I.U.U.U.U.U.U.U.U.U.U.I.I.U.U.U.U.U.U.U.U.U.U.U.U.U.U.U.U.U.U.U.U.U.U.I.I.U.U.U.U.U.U.U.U.U.U.U.U.U.U.U.U.U.U.U.U.U.U.I.U.U.U.U.U.U.U.U.U.U.Y.I.U.U.U.U.U.U.U.U.U.U.U.I.U.U.U.U.U.U.U.U.U.U.U.U.U.U.U.U.U.U.Y.U.U.U.U.U.U.U.I.z.S   U.7XqXeX<XrX",
"rX7XeX0X~.  Z I.~.~.~.~.~.~.~.~.~.~.~.~.~.~.~.~.~.~.~.~.~.~.~.~.~.~.~.~.~.~.~.~.~.~.~.~.~.~.~.~.~.~.~.~.~.~.~.~.~.~.~.~.~.~.~.~.~.~.~.~.~.~.~.~.~.~.~.~.~.~.~.~.~.~.~.~.~.~.~.~.~.~.~.~.~.~.~.~.~.~.~.~.~.~.~.~.~.~.~.~.~.~.~.~.~.~.~.~.~.~.~.~.~.~.~.~.~.~.~.~.~.I.A   R.0XeX4XrX",
"rX0XqX;XA   -.M.z.l.l.l.l.l.l.l.l.l.l.l.l.l.l.l.l.l.l.l.l.l.l.l.l.l.l.l.l.z.l.l.l.l.l.l.l.l.l.l.l.l.l.l.l.l.l.l.l.l.l.l.l.l.l.l.l.l.l.l.l.l.l.l.l.z.l.l.l.l.l.l.l.l.l.l.l.l.l.z.l.l.l.l.l.l.l.l.l.l.l.l.l.l.l.l.l.l.l.l.l.l.l.l.l.l.l.l.l.l.l.l.l.l.l.l.l.l.l.l.j.b.j.  A ;XeX0XrX",
"=X0X0X(.  % W ! ! Q Q Q Q Q Q Q Q Q Q Q Q Q Q #.#.Q Q Q Q Q Q Q #.Q Q Q Q Q Q Q Q Q Q Q Q Q Q Q #.Q Q Q Q Q Q Q Q Q Q Q Q Q Q Q Q Q Q Q Q Q #.Q Q Q Q Q Q Q Q Q Q Q Q Q Q Q Q Q Q Q Q Q Q Q Q Q #.Q Q Q #.Q Q Q Q Q Q Q #.Q Q Q Q Q Q Q Q Q Q Q #.Q Q Q Q Q Q Q W Q W %   ^.0X0X;X",
";X0X7XI.  $ A K K K K K K K K K K K K K K K K K K K K K K K K K K K K K K K K K K K K K K K K K K K K K K K K K K K K K K K K K K K K K K K K K K K K K K K K K K K K K K K K K K K K K K K K K K K K K K K K K K K K K K K K K K K K K K K K K K K K K K K K K K K Z %   I.7X0X;X",
"4X0X7XM.  $ 4 t V V V V C C C C C C C V C C C C C C V V C C C C C C C C V V V V V V V V C C C C C C C C V C V V C V C C V C V V C C V C V V C C C C C V V V C C C C V V C C C C C C V V C C C C C C C C C C C C C V V V C C C C C C V V C C C C C V C V V V C V V S 1 %   N.5X0X;X",
";X0X4XM.  * & 1 0 8 8 8 8 0 0 0 0 0 0 0 0 1 2 2 2 8 0 8 2 1 8 8 1 8 8 0 0 8 0 0 0 0 8 0 8 8 0 0 0 0 0 0 0 0 0 0 0 8 0 0 0 8 0 8 0 0 0 0 0 0 1 3 8 1 8 8 0 8 3 8 1 8 1 0 0 0 0 0 0 0 0 8 0 8 0 8 8 0 0 0 0 0 0 0 0 0 0 0 0 0 0 0 0 0 8 0 0 8 0 0 0 0 0 0 0 8 0 8 0 1 & &   m.4X0X;X",
";X7X4XM.  & 0 0 8 8 8 8 8 8 0 8 0 0 e 8 r 3 # # ; 8 8 e 3 # # # 2 e 8 8 8 8 r t t t 0 8 0 e 8 e t t r 0 8 r t t t e 8 8 r u t e 8 8 8 e 8 e e > o @ > e 0 e > @ # # 8 t 0 r t t t t t t t t 8 8 e t t t e 8 8 r t r 0 8 e u t e 0 8 e t t e 8 8 8 8 0 8 0 8 0 8 8 8 2 1   m.4X7X;X",
";X7X4XM.. 1 r e r r y y y p y y y y i 9 G ~.#X+XOX#.: r Y.%X+X+XD.w r y y t > o o - y y r y y w # o ; r u 9 @ o # 9 i r ; o ; r u y r y i > E ^.+X#X^.T ; G ~.>X+X#Xc.: u > o # @ o o o + # r y > @ @ @ w i e ; O ; y u 3 @ @ > i u 9 @ @ 7 y y u y y y y y y y r e e 8   m.;X7X;X",
"=X4X4XM.X 0 t i i l l l l l l l l l D w k -XeXeXeXS.O z ;XeXeXeX|.; z z l l E k.k.-.z i z l u Y >.k.-.F y E k.k.k.T r D #.k.-.F p l l l G , ~ 5XeXeXqXv.X E 6XeXeXeXY.O D E k.k.k.k.j.>.k.k.H p @.k.k.>.K w J -.v.#.F y @.k.k.E p l T k.k.E l l l l l l l l l l p u y e . M.;X7X;X",
"=X4X;XM.O e i z z z x x x x x x F x H k k =XeXwXeX-X, c.wXeXeXeX~., D H k k {.qXqX<X..n F H q @.<XwX[.k 5 c.7XqX0X[.< k [.eX%Xx k H x x J 6 T 5XeXwXeX{.+ !.eXwXeXwXA.< k D.7X0XqXqXqX0XeX2X@.; Y.8XqX7XH.= P @XwX{.k 5 v.6X9XA.6 6 c.7X8XD.5 H x x x x x x x x z z i i X M.;X4X=X",
"=X4X;Xb.# u x F H H L L L L L L L L P c c :XeX%X0XeXc.%XeX%XqXeX/.5 P P h @.7XeXeXeXE.5 J P j R 6XeX|.s g c.wXeXeXqXA.< |.eX:Xj N L L H P h R 6XeX%XwX7X<.5XwX%XeXeXS.5 h Z.eXeX#XE././.|.'.@., E.eXeXeX7X>.5 %XeX.Xs g v.eXeXS.g h c.eXeXA.5 P L L L L L L L H L x z i O M.;X;X=X",
"=X;X=Xb.; l H U U I I I I I I I I I P N N -XeX[.oXeX6XeX6XA.wXeX[.a I I f [.eX-X@XeX5X} N } b ..5XeX{.v v B.qXqX7XeX0XC.!.eX%XB U P I U R v ..7XeXW.-XeX4XeX-XK.eXeXH.a B Z.eXeX!. .x.<.I j ' s E.wXqX0XeX5X,..XeX|.b j 0.qXeXS.v v B.qXwXA.a R I I I I I I I U U P H z # n.=X<X=X",
">X;X=Xb.: D P I ` ' ' ' ' ' ' ' ' ' ..` ` -XeX[.<.wXeXeX'.<.eXeX[.f | U  .6XeXB.` 0XeXW.v | B @.5XeX.XB B B.eX8XK.6XeX7X,XeX&X` ' } ' ' ..B  .7XeXS.H.eXeXeXS.S.eXeXH.f B S.wXeXwX9XwX7XC.M | M E.eX2XK.9XeX3X5XeX@XB M C.qXeXK.B N C.wXeXH.f } ' ' ' ' ' ' ' ` ` I P F ; M.=X;X>X",
"+X;X=Xl.6 H ` ' | ..| | | | | | | |  .{ { ,XeX}.M ,XeX0X:.B.eXeX X/ | / E.eX0XK.A.2XeX2XO.| { :.6XeX.X) / C.eX9X:.B.9XeXeXeX-X{ [  .| | %./ :.6XeXG.| 6XeX3X{ L.eXeXW.M ) H.eXeX%XQ. X'.,./ | B Q.eX5X[ K.wXeXeXeXoX] B C.qXeXG.d d V.wXeXG.M +.| | | | | | | ..| ' I L : b.>X;X+X",
"OX;X>Xb.6 I } | O.+.+.%.+.%.%.+.%.+.%.O.X.-XeXXXm L.eX%X^ P.eXeX|.) X.%.,XeXqX8X9X9XeXeXL.] [ ;.5XeXoX] ] P.wX9X0.^ H.9XeXeX-XX.O.%.=.=.:.{ ;.6XeXL.d oXeX Xm ].eXeXL._ [ G.eXwXG.m X.X.;.9.:._ Q.eX6X;.( !.qXeXeXoX[ ] 9.7XeX-XP.V.$XeXqXV.) :.+.=.+.+.%.%.%.+. .| ' I 6 b.+X;XOX",
"OX=X>Xl.n `  .%.&.&.*.*.*.;.;.*.*.1.4.=.*.3XeX*X( 0.,XJ._ J.eXeX$Xo.X.].eX9XJ.J.L.F.,XeX5X9.o.0.9XeX*X$.o.G.eXeXF.X.X.L.eXeX2X=.&.;.*.*.;.=.0.9XeX X^ F.&XV.(  XeXeX'.) $.].eXeXqX9X9X9XqX3XV.( '.eX9X0.X.X.}.eXeX*XX.*.=.'.wXeXeXwXeXeXXX$.&.;.*.*.;.1.*.*.*.*.&.%.| ' 6 b.+X=XOX",
"OX=X+Xl.k ' %.*.4.4.4.5.4.4.5.5.4.4.5.4.8.$X5X X1.4.r.5.2.J.2X3X X2.1. X5X X$.$.$._ `.3X,XF.$.F.&X3XXX5.2.J.2X,XF.1.1.5.$X5X$X8.1.5.5.5.5.1.u.&X3X].2.5.u.5.1.].3X<X].2.1.`.2X2X3X3X3X3X6X,Xr.$.].3X&Xu.4.2.r.&X5X X6.4.1.1.J.*X3X3X&X`.5.1.5.5.4.4.5.5.5.5.4.4.4.*.%.} n n.+X=XOX",
"OX=XOXl.c | *.5.5.6.7.7.8.8.8.8.7.7.7.7.8.8.7.8.w.6.6.7.7.w.7.6.8.7.w.8.7.q.8.8.w.8.q.6.7.w.w.8.w.6.8.w.7.8.7.7.w.7.7.w.7.7.8.8.7.7.7.7.7.8.8.8.6.8.8.6.6.8.8.8.7.7.w.7.7.7.w.6.6.6.6.6.6.7.8.8.8.6.7.w.7.7.q.6.6.7.w.6.w.6.3.3.3.6.3.3.6.7.7.7.7.7.7.7.7.7.7.6.6.5.*. .j z.OX>XOX",
"(.+XOXl.c O.4.7.w.w.w.w.y.w.e.e.w.e.e.e.w.q.q.w.w.w.y.w.w.w.q.q.w.w.w.q.q.w.t.t.t.t.w.q.q.w.w.w.q.q.w.w.t.t.q.q.w.e.e.e.w.q.q.w.e.w.t.w.w.e.w.q.q.w.t.t.y.w.w.w.q.q.w.w.e.w.q.q.q.q.q.q.q.w.w.t.q.q.q.t.t.t.t.w.q.q.e.w.e.t.y.w.w.q.w.w.y.t.w.t.y.w.e.w.y.t.w.w.w.6.4.%.c z.OX+X(.",
"(.+XOXj.L &.6.w.y.y.y.y.y.y.y.y.i.y.i.i.i.a.i.i.i.i.i.y.y.a.a.a.a.y.i.i.a.i.y.i.y.y.i.a.a.i.y.y.a.y.y.y.y.y.a.a.i.y.y.i.i.i.a.y.i.i.i.i.i.i.i.i.a.i.y.y.i.y.y.a.p.a.i.i.i.i.i.a.a.a.a.y.a.y.y.y.y.a.i.i.y.y.y.y.a.i.i.i.i.y.y.i.y.a.a.y.y.i.i.y.i.y.i.y.y.y.y.y.t.w.5.&.B l.(.+X^.",
"^.OXOXj.L &.7.y.i.s.s.p.d.s.s.d.d.d.p.d.d.d.p.s.d.s.s.d.s.p.p.p.s.s.s.s.s.s.s.d.d.d.s.s.s.s.d.d.s.a.s.s.s.s.s.s.s.s.d.d.d.s.s.s.s.s.d.d.s.d.s.s.d.d.d.d.d.d.s.s.s.s.s.s.s.s.s.s.s.s.s.s.s.s.s.s.d.d.s.d.d.d.d.d.p.s.d.d.d.s.s.s.d.d.d.d.s.s.s.d.d.d.d.d.d.d.d.d.i.y.7.*.N k.(.+X^.",
"T.OX(.z.U &.8.y.s.d.f.f._.f._.d.f.g.f.f.f.g.f.f.g.f.f.f.f.f.f.g.f.f.f.f.f.f.f.f.f._.f.f.f.f.f.f._.f.f.f.f.f.f.f.f.f.f.f.g.f.f.f.f.f.f.g.f.f.f.f.f.f.f.f.f.f.f.f.g.d.g.g.f.f.f.f.f.f.f.f.f.f.f.f.f.f.f.f.f.f.f.f.f.f.f.f.g.f.f.f.f.f.f.f.f.f.f.f.f.f.f.f.f.f.f.f.s.y.8.&.L z.(.OX~.",
"I.(.(.N.U %.8.y.d.f.g.g.h._.g.h.g.h.h.h.h.h.h.h.h.h.h.h.h.h.h.h._.g._.g.g._.g._._._.g._._._.g._.g._.g._._._._._.h.h.h.h.h.h.h.h.h.g.g._.g._._.h.h.h.g.h.h.h.g.h.h.h.h.h.h.h.h.h._._._._.g._.g._.g._.g._._._._._.h.h.h.h.h.h.h.g.h.h.h.h.h.h.h.h.h.h.h.g._.g.f.f.s.y.8.%.J m.OX(.I.",
"rX^.(.R.~ { 5.w.p.f.g.g.h._._._._._._.h._._._._._._.h.h._._._._._._._._._._._._._._._._._._._._._._._._._._._._._.h._._._._._._._._._._._._._._._._._.h._._._._.h.h._.h.h._.h.h._._._._._._._._._._._._._._._._._.h._._._._._._._._._._._.h._._._._._.h._.f.f.f.s.w.5.` W T.OX~.rX",
"rXT.(.~.m.Y O.6.y.i.d.d.f.f.f.f.f.g.f.f.f.f.f.g.f.f.f.f.f.g.f.f.f.f.f.f.f.f.f.f.f.f.f.f.f.f.f.f.f.f.f.f.f.f.f.f.f.f.f.g.f.f.f.f.f.f.f.g.f.f.f.f.f.f.f.g.f.f.f.g.g.f.f.f.f.g.f.f.f.f.f.f.f.f.f.f.f.f.f.f.f.f.f.f.f.f.f.g.f.f.f.f.f.g.f.f.f.f.f.g.f.f.f.f.f.f.s.a.y.6.| Y m.^.OXT.rX",
"rXrXR.^.~.b.T [ 1.7.w.e.y.y.y.y.y.y.y.y.y.y.y.y.y.y.y.y.y.y.y.y.y.y.y.y.y.y.y.y.y.y.y.y.y.y.y.y.y.y.y.y.y.y.y.y.y.y.y.y.y.y.y.y.y.y.y.y.y.y.y.y.y.y.y.y.y.y.y.y.y.y.y.y.y.y.y.y.y.y.y.y.y.y.y.y.y.y.y.y.y.y.y.y.y.y.y.y.y.y.y.y.y.y.y.y.y.y.y.y.y.y.y.y.t.t.w.7.1.[ Y b.~.^.~.rXrX",
"rXrXI.~.~.R.N.Q E  .+.%.&.*.&.&.*.*.&.&.&.&.*.&.&.&.*.&.&.&.&.&.*.&.&.&.*.&.&.&.&.&.*.&.&.&.*.&.&.&.*.&.&.&.&.&.*.*.&.&.;.&.&.&.&.&.&.*.&.&.&.&.&.&.&.&.&.&.&.&.&.&.&.&.&.&.&.*.&.&.&.*.&.&.&.*.*.&.&.&.&.&.*.&.&.*.&.&.&.&.&.&.&.&.&.&.&.&.&.*.&.&.&.&.%.=.+. .E #.m.~.~.^.I.rXrX",
"rXrXrXI.~.~.R.T.N.b.b.b.b.n.n.n.n.b.n.n.n.n.n.b.n.n.n.n.n.n.n.n.n.n.n.n.n.n.n.n.n.n.n.b.b.n.n.n.n.b.n.n.n.n.n.n.b.n.n.n.n.b.n.n.n.n.n.b.b.n.n.b.n.n.n.n.n.n.n.n.n.n.n.n.n.n.n.n.n.n.n.n.n.n.n.n.n.n.n.n.n.n.n.n.n.b.n.n.n.n.n.n.n.n.n.n.n.b.n.n.n.n.n.n.n.n.n.b.N.U.R.~.~.I.rXrXrX",
"rXrXrXrXN.T.~.~.~.R.R.R.~.R.T.R.R.R.T.~.R.T.~.T.R.R.T.R.R.R.R.R.R.R.~.T.T.R.~.R.T.~.R.R.R.R.T.R.R.R.R.~.T.R.R.R.R.T.T.~.R.R.~.R.R.R.R.R.~.R.~.T.R.R.R.R.R.R.T.R.R.R.R.R.R.R.R.R.T.R.R.R.R.R.R.R.R.R.R.R.R.R.R.R.T.R.~.R.R.R.R.~.R.R.T.R.~.T.R.R.R.R.R.~.R.R.T.R.~.^.~.U.m.rXrXrXrX",
"rXrXrXrXrXrXN.I.U.T.T.T.T.T.T.T.T.T.T.T.T.T.T.T.T.T.T.T.T.T.T.T.T.T.T.T.T.T.T.T.T.T.T.T.T.T.T.T.T.T.T.T.T.T.T.T.T.T.T.T.T.T.T.T.T.T.T.T.T.T.T.T.T.T.T.T.T.T.~.T.T.T.T.T.T.T.T.T.T.T.T.T.T.T.T.T.T.T.T.T.T.T.T.T.T.T.T.T.T.T.T.T.T.T.R.T.T.T.T.T.T.T.T.T.T.T.T.T.U.I.N.rXrXrXrXrXrX",
"rXrXrXrXrXrXrXrXrXrXrXrXrXrXrXrXrXrXrXrXrXrXrXrXrXrXrXrXrXrXrXrXrXrXrXrXrXrXrXrXrXrXrXrXrXrXrXrXrXrXrXrXrXrXrXrXrXrXrXrXrXrXrXrXrXrXrXrXrXrXrXrXrXrXrXrXrXrXrXrXrXrXrXrXrXrXrXrXrXrXrXrXrXrXrXrXrXrXrXrXrXrXrXrXrXrXrXrXrXrXrXrXrXrXrXrXrXrXrXrXrXrXrXrXrXrXrXrXrXrXrXrXrXrXrXrXrX"
};
