/* XPM */
static char *_508057966049[] = {
/* columns rows colors chars-per-pixel */
"137 37 191 2 ",
"   c black",
".  c #000018",
"X  c #000E27",
"o  c #001F33",
"O  c #002B3D",
"+  c #2E2F2F",
"@  c #262E32",
"#  c #2B3236",
"$  c #24353D",
"%  c #02394A",
"&  c #2C3B43",
"*  c #303E46",
"=  c #194759",
"-  c #2F434D",
";  c #31444F",
":  c #204C5E",
">  c #344A55",
",  c #354D59",
"<  c #394F5A",
"1  c #38525F",
"2  c #37505C",
"3  c #2B5668",
"4  c #3A5461",
"5  c #3F5C6A",
"6  c #3D5966",
"7  c #335E71",
"8  c #3C6376",
"9  c #3A6477",
"0  c #464747",
"q  c #424F55",
"w  c #425057",
"e  c #435259",
"r  c #4E575C",
"t  c #505151",
"y  c #585A5B",
"u  c #415C6B",
"i  c #435A65",
"p  c #49626F",
"a  c #45606D",
"s  c #5A656A",
"d  c #456372",
"f  c #4B6674",
"g  c #4A6B7B",
"h  c #4E6875",
"j  c #546D79",
"k  c #536973",
"l  c #59717E",
"z  c #616C73",
"x  c #6B7479",
"c  c #737B7E",
"v  c #4F7283",
"b  c #4C768A",
"n  c #517283",
"m  c #547788",
"M  c #547A8C",
"N  c #5B7B8A",
"B  c #5B7683",
"V  c #4F7B90",
"C  c #547D91",
"Z  c #587F93",
"A  c #607782",
"S  c #657E8A",
"D  c #687C87",
"F  c #558196",
"G  c #598195",
"H  c #57849B",
"J  c #5D859A",
"K  c #5F889E",
"L  c #6B838E",
"P  c #798287",
"I  c #628291",
"U  c #6C8694",
"Y  c #64899B",
"T  c #6C8B9B",
"R  c #62879A",
"E  c #718792",
"W  c #738994",
"Q  c #7C8C94",
"!  c #738E9C",
"~  c #788F9B",
"^  c #7F919A",
"/  c #76919E",
"(  c #628DA3",
")  c #6490A6",
"_  c #6C92A6",
"`  c #6694AB",
"'  c #6997AE",
"]  c #6998AF",
"[  c #7494A4",
"{  c #7B95A3",
"}  c #749BAF",
"|  c #7E9BA9",
" . c #6E9FB7",
".. c #6E9FB8",
"X. c #759CB0",
"o. c #6FA0B9",
"O. c #73A6BF",
"+. c #7FA3B5",
"@. c #73A6C0",
"#. c #76AAC5",
"$. c #78ADC8",
"%. c #78ADC7",
"&. c #7CB3CF",
"*. c #7EB6D2",
"=. c #7FB8D4",
"-. c #868A8E",
";. c #888D8F",
":. c #8A8F91",
">. c #8E9092",
",. c #89989F",
"<. c #939596",
"1. c #939698",
"2. c #979898",
"3. c #9E9E9E",
"4. c #849AA5",
"5. c #899AA3",
"6. c #899FAA",
"7. c #829BA8",
"8. c #939FA5",
"9. c #88A2AF",
"0. c #93A3AC",
"q. c #98A4AA",
"w. c #81A3B4",
"e. c #8DAAB8",
"r. c #93A6B0",
"t. c #95A9B4",
"y. c #9BABB2",
"u. c #9BAFBA",
"i. c #93ACB9",
"p. c #9EB2BD",
"a. c #97B1BF",
"s. c #A2A2A2",
"d. c #ACADAE",
"f. c #A8A8A8",
"g. c #B0B0AF",
"h. c #A2AEB5",
"j. c #AFB1B2",
"k. c #A3B4BD",
"l. c #AAB5BB",
"z. c #B2B2B2",
"x. c #BCBCBC",
"c. c #9FB9C6",
"v. c #9DB5C2",
"b. c #80B9D5",
"n. c #A3BAC5",
"m. c #ABBBC3",
"M. c #ADBFC8",
"N. c #A1BBC8",
"B. c #B3BFC5",
"V. c #AEC2CC",
"C. c #B7C1C6",
"Z. c #B4C3CC",
"A. c #BBC5CB",
"S. c #BCC8CE",
"D. c #B3C7D1",
"F. c #BBCCD4",
"G. c #BDCFD8",
"H. c #B5C9D4",
"J. c #C4C3C3",
"K. c #CBCBCB",
"L. c #C5C9CC",
"P. c #D0D0CF",
"I. c #C4CED3",
"U. c #C7D0D5",
"Y. c #CBD2D6",
"T. c #CCD5DA",
"R. c #CED8DE",
"E. c #C5D3DA",
"W. c #D3D3D3",
"Q. c #D8D7D7",
"!. c #D5DADD",
"~. c #DBDBDB",
"^. c #D4D7D8",
"/. c #D3DDE2",
"(. c #DADFE1",
"). c #CBD9E0",
"_. c #D6E0E5",
"`. c #DBE1E4",
"'. c #DDE5E9",
"]. c #E3E3E4",
"[. c #E4EAED",
"{. c #EAEBEC",
"}. c #E5E7E8",
"|. c #E6EDF0",
" X c #ECEFF0",
".X c #EDF1F3",
"XX c #F2F3F3",
"oX c #F4F7F8",
"OX c #F7F8F9",
"+X c #FEFFFF",
"@X c None",
/* pixels */
"@X@X@X@X@X@X@X@X].{.XXXXXXXXXXXXXXXXXXXXXXXXXXXXXXXXXXXXXXXXXXXXXXXXXXXXXXXXXXXXXXXXXXXXXXXXXXXXXXXXXXXXXXXXXXXXXXXXXXXXXXXXXXXXXXXXXXXXXXXXXXXXXXXXXXXXXXXXXXXXXXXXXXXXXXXXXXXXXXXXXXXXXXXXXXXXXXXXXXXXXXXXXXXXXXXXXXXXXXXXXXXXXXXXXXXXXXXXXXXXXXXXXXXXXXXXXX{.].@X@X@X@X@X@X@X@X",
"@X@X@X@X@XQ.XX+X+X+X+X+X+X+X+X+X+X+X+X+X+X+X+X+X+X+X+X+X+X+X+X+X+X+X+X+X+X+X+X+X+X+X+X+X+X+X+X+X+X+X+X+X+X+X+X+X+X+X+X+X+X+X+X+X+X+X+X+X+X+X+X+X+X+X+X+X+X+X+X+X+X+X+X+X+X+X+X+X+X+X+X+X+X+X+X+X+X+X+X+X+X+X+X+X+X+X+X+X+X+X+X+X+X+X+X+X+X+X+X+X+X+X+X+X+X+X+X+X+X+XXXQ.@X@X@X@X@X",
"@X@X@X@X{.+X+X+X+X+X+X+X+X+X+X+X+X+X+X+X+X+X+X+X+X+X+X+X+X+X+X+X+X+X+X+X+X+X+X+X+X+X+X+X+X+X+X+X+X+X+X+X+X+X+X+X+X+X+X+X+X+X+X+X+X+X+X+X+X+X+X+X+X+X+X+X+X+X+X+X+X+X+X+X+X+X+X+X+X+X+X+X+X+X+X+X+X+X+X+X+X+X+X+X+X+X+X+X+X+X+X+X+X+X+X+X+X+X+X+X+X+X+X+X+X+X+X+X+X+X+X+X{.@X@X@X@X",
"@X@X@XXX+XXX+X{.L.f.3.3.3.3.3.3.2.3.3.3.3.3.3.3.3.3.3.3.3.3.3.2.3.3.3.8.3.3.3.3.3.3.3.3.3.8.3.3.3.3.3.3.3.3.3.3.3.3.3.3.3.3.3.3.3.3.3.2.3.3.3.3.3.3.3.3.3.3.3.3.3.3.3.3.3.3.3.3.3.3.3.3.3.3.3.3.3.3.3.3.3.3.3.3.3.3.3.3.3.3.3.3.3.3.3.3.3.3.3.3.3.3.3.3.3.3.3.f.K.}.+XOX+XXX@X@X@X",
"@X@X{.+XOXXXx.+                                                                                                                                                                                                                                                   + x.XXXX+X{.@X@X",
"@XW.+XXXXXs.  t 2.d.j.d.d.d.d.d.d.g.d.d.d.d.d.d.d.d.d.d.d.d.d.d.d.d.d.d.d.d.d.j.d.d.d.d.d.d.d.d.d.d.d.d.d.d.d.d.d.d.d.d.d.d.d.d.d.d.d.d.d.d.d.d.d.d.d.d.d.d.d.d.d.d.d.d.d.d.d.d.d.d.d.d.d.d.d.d.d.d.d.d.d.d.d.d.d.d.d.d.d.d.d.d.d.d.d.d.d.d.d.j.d.d.d.d.d.d.d.d.2.t   s.XXXX+XW.@X",
"@X{.XXXXz.  y f.j.j.j.j.j.j.z.j.z.j.j.j.z.j.j.j.j.j.j.j.j.j.z.j.j.j.j.z.j.j.g.z.j.j.j.j.j.j.j.j.j.j.j.j.j.j.j.j.j.j.j.j.j.j.j.j.z.j.z.j.j.j.j.j.j.j.j.j.j.j.z.j.j.j.j.j.j.j.g.z.j.j.j.j.j.z.j.j.j.j.j.j.j.j.j.j.j.j.j.j.j.j.j.j.z.j.j.j.j.j.j.j.j.j.j.j.j.j.j.j.z.f.y   z.OXOX}.@X",
"@XXXXX].0   P <.-.>.;.:.:.>.>.;.:.:.:.:.:.:.:.:.:.:.:.:.:.:.:.:.:.:.:.:.:.:.;.>.:.:.:.:.:.:.:.:.:.:.:.:.:.:.:.:.:.:.>.:.:.:.>.>.:.:.:.:.>.:.:.:.:.:.:.:.:.:.:.:.:.:.:.:.:.:.>.;.:.:.:.:.:.:.:.:.:.:.>.:.:.:.:.:.:.:.:.:.:.:.>.>.:.:.:.:.:.:.:.:.:.>.:.:.:.:.>.;.;.1.P   0 ].XXXX@X",
"W.OXXXx.  # x c c c c c c c c c c c c c c c c c c D c c c c c c c c c c c c c c c c c c c c c c c c D c c D c c c c c c c c c c c c c c c c c D D c c c c c c c c c c c c c c c c c c c c c c c c c c c c c c D c c c c c c c c c c c c c c c c c c c c c c c c x c x +   J.XXXXW.",
"Q.XXXXs.  @ y s s s s s s s s s s s s s s s s s s s s s s s s s s s s s s s s s s s s s s s s s s s s s s s s s s s s s s s s s s s s s s s s s s s s s s s s s s s s s s s s s s s s s s s s s s s s s s s s s s s s s s s s s s s s s s s s s s s s s s s s s s s r @   s.XXOX~.",
"~.XX{.2.  # & < w w q q w w w w e e w w e e 2 w e e e e w w e e w w w 2 w w w w e e e e e e 2 w w q e e w w w w w w e e w w e w e e w w r w 2 e e w e e e e e e e e e 1 e w w w e e w w w e w e e e w e w w w w e w e e w w w w w w w w e e 2 e w w w w w q w w w q & $   2.{.XX~.",
"Q.XX{.2.  $ $ & * * - * - - ; - ; ; - * ; ; - - ; * ; * ; ; * ; - ; ; - ; - - - ; ; & - ; ; - - ; ; * ; - - - - ; ; * ; - - - - ; ; * - - - - - ; * ; * ; & ; ; & ; ; - ; - ; ; ; ; ; - - - - - ; - - - - - - - ; ; * ; - - - - - ; - - - ; - - - - - - - - - - * & $ &   2.{.XXQ.",
"Q.XX{.2.  * & - - - ; ; - - ; ; - ; ; ; - - ; ; ; ; ; - ; - - ; - ; ; ; - - ; - - - ; - - - ; - ; ; - - ; ; - ; ; ; - - ; ; - - ; ; ; - - ; - - ; - - - - - - ; ; ; ; - - ; - - ; - ; - ; ; ; - - - - ; ; ; - - ; ; - - ; ; - - ; ; - - - ; - - - ; ; - - - - - - * * *   2.{.{.Q.",
"P.{.].2.  ; - > l 8.0.8.0.8.0.,.D 2 , , , < , , , , , , > < , , , , , , , , , < > < , , , < , , , , , < , , , < , , , < , , , < > , , , , < , , , , < < < , , , , , < , , , , < > > , , 6 -.0.h.0.P i < , , , < , > < < , , , < , , , , < < , , , , , < < , , , > > - ;   2.].{.P.",
"P.{.].<.. > > < k +X+X+X+X+X+X+X+X].p 1 4 4 4 4 4 4 4 4 4 4 4 4 4 4 4 4 4 4 4 4 4 4 4 4 4 4 4 4 1 1 4 4 4 1 4 4 1 4 4 4 4 4 4 4 4 1 1 4 4 4 4 4 4 4 4 4 4 4 4 4 4 4 4 4 4 4 4 4 4 4 4 Q XX+X+X+X+X+X+X[.A 4 4 1 1 4 4 4 4 4 4 4 4 4 1 4 4 4 4 4 4 4 4 4 4 4 4 4 4 < > > . 2.].}.P.",
"P.}.~.<.X w 1 i l +X+X!.y.y.h.L.+X+Xy.u 6 4. X.XE 5 5 ^  X.X^ 5 5 0..X.X|..X X!.y.f 5 5 l..X{..XA u h ~.|.k.5 5 ,.{..X,.5 5 k..X.X XA u f !..Xh.5 5 u S I.[.+X.X!.l.g 5 5 5 5 5 5 u d +X+XT.5.Q ,.l.].Y.u u l [.{.C.u u 5 S. X'.j 5 h ^.{.T.h 5 g  X X X.X{.`.y.i 6 1 q X <.].}.P.",
"K.].~.<.o 4 5 u B +X+XB.d d d S +X+X0.d d E +X+XL d d W +X+XS d d 5.+XOXA.A.U.XX+Xk.d d y.+X+X+XY.f d (.+X0.d d U +X+XU d d y.+X+X+XT.f d /.+X0.d d 4.+X+XXX!.`.+X'.d d d d d d d d U +X+XC.E B f f f S d d d .X+Xl.d d f m.+X{.d d d Y.+XY.d d d +X+X(.A.U.OX+Xl.5 5 1 O >.~.].K.",
"K.].Q.<.O u u d N +X+XoX.X{..X+X+XU.B g g ! +X+XU g g / +X+XU g g 6.+XoXg g g r.+X{.g g y.+XOX+X+XI.g /.+Xr.g g W +X+XW g g y.+XOX+X+XI.g /.+X0.g g OX+XI.n g g N 5.g g g g g g g g g {.+X+X+X+X+X{.S.U g g g .X+XB.N N N Z.+X{.g g g T.+XT.g g g +X+Xy.g g A.+X_.f a 5 O >.Q.].K.",
"K.].Q.:.% u d v L +X+X+XOXOXOX+X+XF.I v n { +X+X! v v { +X+X! v v 9.+XOXk.k.m.[.+XI.n n u.+X/.B.+X+XS.(.+Xt.v v ! +X+X! v v p.+X!.Z.+X+XS.(.+Xt.n ! +X+XW m 7.6.6.6.{ m v v v v v v v N m.`.OX+X+X+X+XOX! v v oX+X+X+X+X+X+X+X[.v v v R.+XT.v v v +X+XZ.7.r.{.+XU.g f a % >.Q.].K.",
"J.Q.Q.>.% f g m U +X+XS.M M m Y {.+XF.M M { +X+X[ m m | +X+X! m M t.+X+X+X+X+X+XR.T M M k.+X/.M I.+X+X+X+Xu.M M { +X+X{ M m p.+X/.M I.+X+X+X+Xp.M | +X+XT M m.+X+X+X'.m M M m m M M M | M M M I [ a.+X+Xm.M M .X+X{.(././.{.+X XM M M R.+XR.M M M +X+X+X+X+X+X[.T m g d % >.W.~.J.",
"J.Q.W.:.= g m M T +X+XG.G G G R [.+X XZ G T +X+Xn.Z G M.+X+XJ G G i.+XoXY [ OX+Xe.G G G n.+X/.J G T.+X+X+Xv.Z G | +X+X| G G n.+X/.G G T.+X+X+Xp.H R +X+XS.G [ Y M.+X'.G G G G G H G G oXT.9.Y G [ M.+X+XM.G G .X+XV.G G G Z.+X XG G G /.+XR.Z G G +X+XH.7.w.[ Z Z M v g = >.W.~.J.",
"J.Q.P.:.= v M G _ +X+XOXoX.XoX+X+X+XG.( K K R.+X+X|.|.+X+XE.K K K v.+XoXK Y H.+X.X_ K Y N.+X/.R K ( /.+X+Xc.Y K w.+X+Xw.K K n.+X_.K K ( /.+X+Xc.K K V.+X+X'.G.G.[.+XoX_ K K K K K K c.+X+X+X+X+X+X+X+X.X_ K K oX+XZ.K K K H.+X.XK K R /.+X/.K ( K +X+Xn.K K K K J G M n = ;.P.Q.x.",
"x.Q.K.:.3 m G Y e.+X+X+X+X+X+XOX XD.` ( ( ( ] F. X+X+X XD.` ) ) ( V.+XOXX.) w.+X+X/.` ( G.+X|.` ) ) +.+X+XF.) ( N.+X+Xc.) ) G.+X|.] ( ) +.+X+XF.) ) ) c.[.OX+XOX[.G.w.) ) ) ) ) ) ) e.D._.oX+X+XOX|.F.X.) ) X.OX+X).) ) ) /.+XoX} ) ] [.+X[.' ( } +X+XF.) ) ( ( ( K J m 3 ;.K.Q.x.",
"x.W.K.;.3 M K ) ` ] ] ] `  .] '  .` ] ]  .` ] ] `  .] ] ] ] ] ] ] `  .] `  .] ] ] ] ] ] ] ] ] ]  .` `  .] ] ] ] ] ] ] ] ' ' ' ' ] ] ] ] ] ] `  .] ' ] ] ' ' } ] ' ' ] `  .` `  .' ' ] ] `  .]  . .] `  .' `  .' ] ] ] ] ] ] ] ] ] ] ] ] ] ] ] ] ] ] ] ] ] `  .` ` ) K N 3 ;.K.P.x.",
"x.P.K.-.7 Z ( '  . . . . . . . . . . . . . . . . . . . . . . . . . . . . . . . . .o.o.o. . . . . . . . . . . . . .o. .o.o. .o.o. . . . ....... . ..... . . . ... . . .o. . . . . . . . . . . . . . . . . . . . .o.o. .o. . .o.o. . . . .o. .o.o. . . . . . . . . .' ( G 7 -.K.P.x.",
"x.K.J.-.7 R ` .. .O.@.@.@.@.@.@.@.@.@.@.@.@.@.@.@.@.@.@.@.@.@.@.@.@.@.@.@.@.@.@.O.@.O.@.@.@.@.@.O.O.@.@.@.@.@.@.@.@.@.@.O.O.@.@.@.@.@.@.@.@.@.@.@.@.@.@.@.@.@.@.@.@.@.@.@.@.@.@.@.@.@.@.@.@.@.@.O.O.@.@.@.@.@.@.@.@.O.O.@.O.@.@.@.@.@.@.O.O.O.@.@.@.@.@.@.@.@.@.o.o.` H 9 -.K.K.z.",
"z.K.J.;.8 ( ] ..@.%.%.%.$.$.$.$.$.$.$.$.$.$.$.$.$.$.$.%.$.$.$.$.$.$.%.%.$.$.$.$.$.$.$.$.$.$.$.$.$.$.$.$.$.$.$.$.$.$.$.%.%.$.$.$.$.$.$.$.$.$.$.#.$.$.$.$.$.$.$.$.$.$.$.$.$.$.$.$.$.$.$.$.$.$.$.$.%.%.%.$.$.$.$.$.$.$.$.$.$.$.$.$.$.$.$.$.%.$.$.$.$.%.$.$.$.%.%.%.@.o.' K 9 -.J.K.z.",
"d.J.J.:.8 R ' @.$.&.$.*.*.&.$.*.&.*.&.&.&.*.&.*.&.&.&.*.&.&.&.*.&.&.&.&.*.&.&.&.&.&.&.&.&.*.&.&.&.&.&.&.&.&.&.*.&.&.&.*.&.&.&.&.*.*.$.*.*.$.*.*.&.&.&.&.&.&.&.&.&.&.&.*.&.&.&.*.*.$.*.*.&.&.&.&.&.*.&.&.&.&.&.*.&.&.&.&.&.&.&.&.&.*.&.&.&.&.&.*.*.&.&.&.&.*.&.$.%.o. .Y 8 >.J.J.z.",
"s.J.J.3.d G ] @.$.&.*.*.=.b.=.=.*.b.b.=.b.b.b.b.=.b.b.=.=.=.=.=.=.b.b.b.=.b.=.b.=.b.=.b.=.b.=.b.=.b.=.=.b.=.b.=.=.=.=.b.=.=.=.=.b.b.b.b.b.b.b.b.b.b.b.b.b.b.b.b.=.=.=.=.=.=.=.=.b.b.b.=.=.b.=.=.=.=.=.*.=.=.=.=.=.=.=.=.=.b.=.=.*.=.=.=.=.=.=.=.=.=.=.=.=.=.*.&.$.o.] H d 3.x.J.s.",
"@Xz.x.g.z b )  .%.&.*.*.=.b.b.b.b.b.b.b.b.b.b.b.b.b.b.b.b.b.b.b.b.=.b.b.b.b.b.=.b.b.b.b.b.b.b.b.b.b.b.=.b.b.b.b.b.b.b.b.b.b.b.=.b.b.b.b.b.b.b.b.b.b.b.b.b.b.b.b.=.=.=.=.=.=.b.=.b.b.b.b.b.b.b.b.b.b.b.=.=.=.b.=.b.b.b.b.b.b.b.=.=.=.b.b.=.=.b.b.=.=.=.=.=.=.*.&.%.o.) b z z.x.x.@X",
"@Xd.J.x.3.p Z `  .%.$.&.$.*.&.&.&.&.*.&.*.$.&.&.*.&.$.*.*.&.*.&.*.&.&.&.&.&.&.&.&.&.*.&.&.&.&.&.&.&.&.&.&.*.&.&.&.&.&.&.*.&.&.&.$.*.&.&.$.*.&.&.&.&.&.&.$.*.&.&.*.&.&.*.&.*.&.&.*.$.*.&.&.&.&.&.&.*.*.&.&.&.*.&.&.&.*.&.&.&.&.&.&.&.*.&.&.&.&.&.*.&.&.&.&.&.%.@.o.` G p 3.x.x.d.@X",
"@X@Xx.z.z.<.f C ( ]  ...O.@.O.O.O.O.O.O.O.O.O.O.O.O.O.O.O.O.O.O.O.O.O.O.O.O.@.O.O.O.O.O.O.@.O.O.O.O.O.O.O.O.O.O.O.O.O.O.O.O.O.O.@.@.O.O.@.@.O.@.O.O.O.O.@.@.O.@.O.O.O.@.O.O.O.O.O.O.@.@.O.O.O.O.O.O.O.O.@.O.O.O.O.O.O.O.O.O.@.O.O.@.O.O.O.O.@.O.O.O.O.O.O.o. .] ( M h 1.z.z.x.@X@X",
"@X@X3.J.g.z.3.x l m C Z H H H H H H H H H H H H H H H H H H H H H H H H H H H H H H H H H H H H H H H H H H H H H H H H H H H H H H H H H H H H H H H H H H H H H H H H H H H H H H H H H H H H H H H H H H H H H H H H H H H H H H H H H H H H H H H H G F V m l c 3.z.z.x.s.@X@X",
"@X@X@X3.x.z.z.g.s.2.<.<.<.1.1.1.1.<.1.1.1.1.1.1.1.1.1.1.1.1.<.1.1.1.1.1.1.1.1.1.1.1.1.<.<.1.1.1.1.1.<.1.<.1.1.<.1.1.1.1.1.1.1.1.1.1.1.1.1.1.1.1.1.1.1.<.1.1.1.1.1.1.1.1.<.1.1.1.1.1.1.<.1.1.1.1.1.<.1.<.1.1.1.1.<.<.1.1.1.1.1.1.1.1.1.1.1.1.<.1.<.1.1.<.1.1.<.1.s.g.z.d.x.s.@X@X@X",
"@X@X@X@X2.f.x.z.z.z.g.g.g.g.j.g.z.g.g.g.g.g.g.d.g.g.z.g.g.g.g.g.g.g.g.g.z.d.g.g.g.g.g.g.g.d.z.j.g.g.g.g.z.j.g.g.g.g.g.g.g.g.g.g.g.g.g.g.g.g.g.g.g.g.g.g.g.g.g.g.g.z.g.g.g.g.g.g.g.g.d.g.g.z.g.g.g.g.g.j.d.g.g.g.g.g.z.g.j.g.g.g.g.g.g.g.g.g.g.g.g.g.g.z.g.g.z.z.z.z.z.f.1.@X@X@X@X",
"@X@X@X@X@X@X2.s.f.d.z.z.z.g.z.z.z.z.z.z.z.z.z.z.z.z.z.z.z.z.z.z.z.z.z.z.z.z.z.z.z.z.z.z.z.z.z.z.z.z.z.z.z.z.g.z.z.z.z.z.z.z.z.z.z.z.z.z.z.z.z.z.z.z.z.z.z.z.z.z.z.z.z.z.z.z.z.z.z.z.z.z.z.z.z.z.z.z.z.z.z.z.z.z.z.z.z.z.z.z.z.z.z.z.z.z.z.z.z.z.z.z.z.z.z.z.z.d.f.s.3.@X@X@X@X@X@X",
"@X@X@X@X@X@X@X@X@X@X@X@X@X@X@X@X@X@X@X@X@X@X@X@X@X@X@X@X@X@X@X@X@X@X@X@X@X@X@X@X@X@X@X@X@X@X@X@X@X@X@X@X@X@X@X@X@X@X@X@X@X@X@X@X@X@X@X@X@X@X@X@X@X@X@X@X@X@X@X@X@X@X@X@X@X@X@X@X@X@X@X@X@X@X@X@X@X@X@X@X@X@X@X@X@X@X@X@X@X@X@X@X@X@X@X@X@X@X@X@X@X@X@X@X@X@X@X@X@X@X@X@X@X@X@X@X@X"
};
